<svg width="32" height="32" viewBox="0 0 32 32" fill="none" xmlns="http://www.w3.org/2000/svg">
<g id="add">
<circle id="Ellipse 208" cx="16" cy="16" r="16" fill="#EDEFF0"/>
<path id="Vector" d="M21.4857 14.6287H17.3714V10.5144C17.3714 10.0095 16.962 9.6001 16.4571 9.6001H15.5428C15.038 9.6001 14.6285 10.0095 14.6285 10.5144V14.6287H10.5143C10.0094 14.6287 9.59998 15.0381 9.59998 15.543V16.4572C9.59998 16.9621 10.0094 17.3715 10.5143 17.3715H14.6285V21.4858C14.6285 21.9907 15.038 22.4001 15.5428 22.4001H16.4571C16.962 22.4001 17.3714 21.9907 17.3714 21.4858V17.3715H21.4857C21.9905 17.3715 22.4 16.9621 22.4 16.4572V15.543C22.4 15.0381 21.9905 14.6287 21.4857 14.6287Z" fill="#677781"/>
</g>
</svg>
