<svg width="14" height="14" viewBox="0 0 14 14" fill="none" xmlns="http://www.w3.org/2000/svg">
<path d="M14 1.5V12.5C14 13.3284 13.3284 14 12.5 14H1.5C0.671562 14 0 13.3284 0 12.5V1.5C0 0.671562 0.671562 0 1.5 0H12.5C13.3284 0 14 0.671562 14 1.5ZM11.25 2H7.75091C7.08488 2 6.74841 2.80816 7.22056 3.28034L8.22006 4.27994L2.10984 10.3902C1.96341 10.5366 1.96341 10.774 2.10984 10.9205L3.0795 11.8902C3.22597 12.0366 3.46341 12.0366 3.60984 11.8902L9.72003 5.77997L10.7197 6.77969C11.1893 7.24928 12 6.91953 12 6.24934V2.75C12 2.33578 11.6642 2 11.25 2Z" fill="#7249CB"/>
</svg>
