<svg width="12" height="12" viewBox="0 0 12 12" fill="none" xmlns="http://www.w3.org/2000/svg">
<g id="Arrow Back">
<path id="Vector" d="M5.10211 0.935521L5.69669 0.340946C5.94844 0.089188 6.35554 0.0891881 6.60462 0.340946L11.8112 5.54483C12.0629 5.79659 12.0629 6.20368 11.8112 6.45276L6.60462 11.6593C6.35286 11.9111 5.94577 11.9111 5.69669 11.6593L5.10211 11.0647C4.84767 10.8103 4.85303 10.3952 5.11282 10.1461L8.34014 7.07144L0.642786 7.07144C0.286576 7.07144 4.42646e-07 6.78487 4.73786e-07 6.42866L5.48712e-07 5.57161C5.79853e-07 5.2154 0.286576 4.92883 0.642787 4.92883L8.34014 4.92883L5.11282 1.85417C4.85035 1.60509 4.845 1.18996 5.10211 0.935521Z" fill="white"/>
</g>
</svg>
