<svg width="32" height="32" viewBox="0 0 32 32" fill="none" xmlns="http://www.w3.org/2000/svg">
<g clip-path="url(#clip0_2436_477)">
<path d="M30.674 22.0081C30.6426 23.4932 29.6455 24.8221 28.2241 25.2525C27.8853 25.3555 27.5204 25.421 27.1668 25.4219C24.0742 25.435 20.9808 25.4297 17.8883 25.4297C17.8368 25.4297 17.7853 25.4228 17.6753 25.4149C20.9206 20.6844 24.1432 15.9889 27.4112 11.2253H19.4521C19.824 9.66417 20.1863 8.14061 20.5504 6.61356C20.6255 6.60745 20.6788 6.59872 20.7329 6.59872C22.8894 6.59872 25.046 6.58649 27.2017 6.60483C28.8353 6.6188 30.2017 7.72502 30.578 9.31144" fill="#1A2326"/>
<path d="M4.26889 20.8073H12.2307C11.8579 22.3675 11.4955 23.8858 11.1262 25.4312C11.011 25.4312 10.9045 25.4312 10.7979 25.4312C8.77234 25.4312 6.74675 25.433 4.72115 25.4312C2.49737 25.4295 1 23.9251 1 21.6943C1 17.9042 1 14.1132 1 10.3231C1 8.11065 2.49562 6.6028 4.7002 6.60018C7.68358 6.59669 10.6678 6.60018 13.6512 6.60018C13.7481 6.60018 13.8451 6.60018 14.0162 6.60018C10.763 11.342 7.54127 16.0367 4.26801 20.8081L4.26889 20.8073Z" fill="#1A2326"/>
<path d="M11.1743 31.9756C12.1853 27.7489 13.1964 23.5213 14.2188 19.2484H7.24182C11.6737 12.7874 16.0619 6.39371 20.4492 0L20.5138 0.0209544C19.501 4.25986 18.4882 8.49876 17.4641 12.7813H24.441C20.0153 19.2318 15.6341 25.615 11.2537 31.9991C11.2275 31.9913 11.2005 31.9825 11.1743 31.9747V31.9756Z" fill="#1A2326"/>
</g>
<defs>
<clipPath id="clip0_2436_477">
<rect width="29.6741" height="32" fill="white" transform="translate(1)"/>
</clipPath>
</defs>
</svg>
