<svg width="24" height="24" viewBox="0 0 24 24" fill="none" xmlns="http://www.w3.org/2000/svg">
<path id="Vector" fill-rule="evenodd" clip-rule="evenodd" d="M12.959 0.0283478C12.7486 -0.0289909 12.5245 0.00138726 12.3358 0.112822C12.1472 0.224258 12.0095 0.407657 11.9529 0.622812L7.95392 15.893C7.89793 16.1086 7.92786 16.3381 8.03713 16.531C8.1464 16.7241 8.32608 16.8648 8.5367 16.9224L18.9634 19.7807C19.1741 19.838 19.3985 19.8074 19.5871 19.6956C19.7758 19.5838 19.9133 19.4 19.9696 19.1845L23.972 3.91604C24 3.80919 24.0071 3.69774 23.9929 3.58807C23.9788 3.47841 23.9436 3.37267 23.8895 3.2769C23.8354 3.18114 23.7633 3.09723 23.6775 3.02997C23.5916 2.96272 23.4937 2.91343 23.3892 2.88493L12.959 0.0283478ZM5.88503 15.3249L8.62069 4.88227L0.610807 7.076C0.506328 7.10449 0.408365 7.15378 0.322519 7.22104C0.236672 7.28829 0.164626 7.3722 0.110501 7.46797C0.0563748 7.56373 0.0212308 7.66947 0.00707813 7.77914C-0.00707455 7.8888 4.1665e-05 8.00025 0.0280199 8.1071L4.03039 23.3755C4.08667 23.591 4.22424 23.7749 4.41289 23.8866C4.60154 23.9984 4.82585 24.029 5.03656 23.9718L15.465 21.1134C15.4783 21.1097 15.4914 21.1056 15.5044 21.1012L7.97963 19.0407C7.60331 18.9375 7.25054 18.7595 6.94149 18.5168C6.63244 18.2742 6.37317 17.9715 6.17849 17.6263C5.98381 17.281 5.85754 16.8999 5.80689 16.5047C5.75624 16.1096 5.78221 15.708 5.88331 15.3231L5.88503 15.3249Z" fill="#677781"/>
</svg>
