<svg width="16" height="13" viewBox="0 0 16 13" fill="none" xmlns="http://www.w3.org/2000/svg">
<path id="Vector" d="M7.99992 9.60944C6.10368 9.60944 4.56868 8.23342 4.42743 6.48967L1.80494 4.58959C1.46019 4.99506 1.14294 5.42373 0.886943 5.89248C0.829754 5.99854 0.799957 6.11572 0.799957 6.23455C0.799957 6.35339 0.829754 6.47057 0.886943 6.57662C2.24269 9.05655 4.92668 10.7344 7.99992 10.7344C8.67267 10.7344 9.32167 10.6407 9.94717 10.4893L8.64992 9.54827C8.43568 9.58706 8.21812 9.60754 7.99992 9.60944ZM15.8454 10.9712L13.0817 8.96866C13.9212 8.30535 14.6117 7.49216 15.1129 6.57639C15.1701 6.47033 15.1999 6.35316 15.1999 6.23432C15.1999 6.11548 15.1701 5.99831 15.1129 5.89225C13.7572 3.41233 11.0732 1.73444 7.99992 1.73444C6.7128 1.7359 5.44658 2.03968 4.31693 2.61803L1.13644 0.313421C1.09497 0.283165 1.04754 0.260867 0.996871 0.247802C0.946201 0.234736 0.893282 0.23116 0.841137 0.237276C0.788992 0.243392 0.738644 0.259081 0.692969 0.283447C0.647295 0.307813 0.607189 0.340378 0.574944 0.37928L0.0841957 0.971546C0.0190955 1.05006 -0.0100755 1.1496 0.00309852 1.24827C0.0162725 1.34694 0.0707126 1.43667 0.154445 1.49772L14.8634 12.1555C14.9049 12.1857 14.9523 12.208 15.003 12.2211C15.0536 12.2341 15.1066 12.2377 15.1587 12.2316C15.2109 12.2255 15.2612 12.2098 15.3069 12.1854C15.3525 12.1611 15.3927 12.1285 15.4249 12.0896L15.9159 11.4973C15.981 11.4188 16.0101 11.3192 15.9969 11.2206C15.9837 11.1219 15.9292 11.0322 15.8454 10.9712ZM11.2524 7.64303L10.2699 6.931C10.3527 6.70681 10.3965 6.47164 10.3999 6.23444C10.4048 5.88715 10.3227 5.54364 10.1603 5.23149C9.99789 4.91933 9.75964 4.64724 9.46471 4.43707C9.16977 4.22689 8.82637 4.08449 8.46209 4.02131C8.0978 3.95813 7.72279 3.97592 7.36717 4.07326C7.51793 4.26477 7.59947 4.49642 7.59992 4.73444C7.59619 4.81364 7.58328 4.89223 7.56142 4.96881L5.72118 3.63545C6.36042 3.13464 7.16686 2.86001 7.99992 2.85944C8.47275 2.85919 8.941 2.94632 9.37789 3.11584C9.81478 3.28536 10.2117 3.53395 10.5461 3.8474C10.8804 4.16085 11.1456 4.533 11.3264 4.94259C11.5072 5.35217 11.6002 5.79116 11.5999 6.23444C11.5999 6.74139 11.4677 7.21389 11.2524 7.64326V7.64303Z" fill="#677781"/>
</svg>
