<svg width="595" height="300" viewBox="0 0 595 300" fill="none" xmlns="http://www.w3.org/2000/svg">
<path d="M0 16C0 7.16345 7.16344 0 16 0H579C587.837 0 595 7.16344 595 16V300H0V16Z" fill="url(#paint0_linear_1_220)"/>
<mask id="mask0_1_220" style="mask-type:alpha" maskUnits="userSpaceOnUse" x="0" y="0" width="595" height="300">
<path d="M0 16C0 7.16345 7.16344 0 16 0H579C587.837 0 595 7.16344 595 16V300H0V16Z" fill="#364349"/>
</mask>
<g mask="url(#mask0_1_220)">
<g clip-path="url(#clip0_1_220)">
<path d="M419.595 157.646C419.328 157.646 419.067 157.669 418.807 157.7C418.152 155.097 417.118 152.646 415.761 150.41C415.966 150.249 416.165 150.077 416.354 149.889C418.881 147.348 418.869 143.237 416.326 140.711C413.783 138.183 409.671 138.195 407.143 140.738C406.955 140.928 406.785 141.128 406.625 141.333C404.381 139.99 401.922 138.971 399.314 138.332C399.344 138.073 399.365 137.811 399.364 137.543C399.353 133.958 396.438 131.061 392.851 131.072C389.264 131.082 386.366 133.996 386.377 137.581C386.377 137.848 386.399 138.11 386.431 138.368C383.826 139.023 381.374 140.056 379.138 141.412C378.977 141.207 378.805 141.008 378.615 140.82C376.072 138.292 371.96 138.304 369.432 140.847C366.904 143.389 366.917 147.499 369.46 150.026C369.65 150.214 369.85 150.384 370.055 150.544C368.712 152.788 367.691 155.244 367.052 157.852C366.794 157.822 366.531 157.802 366.263 157.802C362.677 157.813 359.778 160.728 359.789 164.312C359.8 167.897 362.715 170.794 366.301 170.783C366.569 170.783 366.83 170.76 367.09 170.728C367.745 173.332 368.779 175.783 370.136 178.019C369.931 178.18 369.732 178.351 369.543 178.54C367.015 181.081 367.028 185.192 369.571 187.718C372.114 190.246 376.226 190.234 378.754 187.691C378.942 187.501 379.112 187.301 379.272 187.095C381.515 188.438 383.975 189.458 386.583 190.097C386.553 190.356 386.532 190.618 386.533 190.886C386.544 194.471 389.459 197.368 393.046 197.357C396.632 197.347 399.531 194.433 399.52 190.848C399.52 190.58 399.497 190.319 399.465 190.061C402.071 189.406 404.523 188.373 406.759 187.016C406.92 187.222 407.091 187.421 407.281 187.609C409.824 190.137 413.937 190.125 416.464 187.582C418.992 185.04 418.98 180.929 416.437 178.403C416.247 178.215 416.047 178.045 415.842 177.885C417.186 175.641 418.205 173.185 418.845 170.577C419.103 170.607 419.366 170.627 419.633 170.627C423.22 170.616 426.118 167.702 426.108 164.117C426.097 160.532 423.182 157.635 419.595 157.646ZM392.985 176.269C386.325 176.288 380.911 170.908 380.891 164.251C380.871 157.594 386.255 152.181 392.915 152.162C399.575 152.142 404.989 157.523 405.009 164.179C405.028 170.836 399.645 176.249 392.985 176.269Z" fill="#E2EAFF"/>
<path d="M393.027 201.035C391.212 201.035 389.503 200.33 388.215 199.051C386.922 197.766 386.206 196.054 386.2 194.231C386.2 194.062 386.208 193.886 386.223 193.696C383.809 193.076 381.5 192.13 379.352 190.875C379.231 191.019 379.112 191.152 378.992 191.272C376.338 193.941 372.006 193.953 369.337 191.299C368.044 190.014 367.328 188.302 367.322 186.479C367.318 184.656 368.023 182.939 369.308 181.646C369.426 181.526 369.557 181.406 369.701 181.285C368.434 179.144 367.473 176.843 366.839 174.434C366.642 174.452 366.45 174.459 366.283 174.459C362.528 174.459 359.467 171.411 359.455 167.655C359.45 165.832 360.155 164.116 361.44 162.823C362.725 161.53 364.439 160.815 366.262 160.81C366.429 160.818 366.608 160.818 366.797 160.833C367.416 158.419 368.364 156.113 369.619 153.965C369.473 153.843 369.344 153.725 369.223 153.605C367.93 152.32 367.214 150.608 367.208 148.785C367.204 146.962 367.909 145.245 369.194 143.952C371.848 141.283 376.18 141.271 378.849 143.925C378.969 144.043 379.089 144.174 379.211 144.318C381.351 143.051 383.654 142.09 386.065 141.458C386.049 141.268 386.039 141.092 386.039 140.923C386.035 139.1 386.74 137.384 388.025 136.091C389.31 134.798 391.024 134.083 392.847 134.078H392.866C396.622 134.078 399.683 137.127 399.695 140.882C399.695 141.051 399.687 141.229 399.672 141.417C402.086 142.035 404.393 142.983 406.543 144.238C406.666 144.092 406.785 143.961 406.903 143.841C409.557 141.172 413.89 141.16 416.559 143.813C417.851 145.098 418.567 146.81 418.573 148.633C418.579 150.456 417.873 152.172 416.587 153.465C416.469 153.585 416.338 153.705 416.193 153.827C417.459 155.967 418.423 158.269 419.055 160.676C419.244 160.66 419.418 160.651 419.589 160.651H419.611C423.366 160.651 426.427 163.699 426.438 167.455C426.442 169.278 425.737 170.994 424.452 172.287C423.167 173.58 421.453 174.295 419.63 174.3C419.459 174.303 419.284 174.292 419.096 174.277C418.476 176.689 417.528 178.997 416.273 181.145C416.419 181.267 416.55 181.385 416.67 181.504C417.962 182.789 418.678 184.501 418.684 186.324C418.688 188.147 417.984 189.863 416.698 191.156C414.044 193.825 409.712 193.837 407.043 191.185C406.923 191.066 406.803 190.936 406.68 190.792C404.539 192.058 402.235 193.02 399.825 193.652C399.842 193.842 399.851 194.017 399.851 194.187C399.857 196.01 399.151 197.726 397.866 199.019C396.581 200.312 394.867 201.027 393.044 201.032H393.023L393.027 201.035ZM379.275 190.105C379.332 190.105 379.393 190.12 379.446 190.152C381.69 191.495 384.119 192.493 386.665 193.116C386.829 193.155 386.937 193.312 386.917 193.48C386.884 193.757 386.869 194.001 386.87 194.228C386.875 195.873 387.521 197.416 388.687 198.576C389.849 199.73 391.391 200.365 393.029 200.365H393.047C394.692 200.361 396.237 199.715 397.396 198.55C398.555 197.383 399.192 195.837 399.187 194.191C399.187 193.963 399.171 193.726 399.136 193.444C399.115 193.277 399.222 193.12 399.386 193.079C401.928 192.441 404.351 191.43 406.587 190.073C406.731 189.986 406.918 190.02 407.023 190.152C407.196 190.371 407.357 190.555 407.518 190.714C409.926 193.107 413.835 193.096 416.229 190.688C417.388 189.522 418.025 187.975 418.02 186.33C418.015 184.686 417.37 183.141 416.203 181.982C416.044 181.823 415.858 181.663 415.638 181.491C415.504 181.388 415.469 181.201 415.556 181.055C416.9 178.812 417.897 176.384 418.521 173.84C418.562 173.676 418.716 173.568 418.886 173.587C419.162 173.621 419.409 173.639 419.633 173.635C421.279 173.63 422.823 172.984 423.983 171.819C425.143 170.654 425.778 169.106 425.774 167.461C425.765 164.072 423.003 161.322 419.615 161.322H419.597C419.369 161.322 419.13 161.339 418.849 161.374C418.681 161.398 418.524 161.287 418.485 161.123C417.847 158.582 416.835 156.16 415.477 153.925C415.389 153.781 415.424 153.594 415.556 153.489C415.775 153.318 415.959 153.155 416.118 152.996C417.277 151.829 417.914 150.281 417.909 148.637C417.905 146.994 417.259 145.449 416.092 144.29C413.683 141.895 409.776 141.908 407.382 144.315C407.221 144.478 407.064 144.657 406.889 144.881C406.786 145.013 406.599 145.049 406.455 144.963C404.21 143.62 401.782 142.622 399.236 141.999C399.072 141.959 398.964 141.803 398.984 141.634C399.017 141.358 399.032 141.113 399.032 140.887C399.022 137.498 396.26 134.748 392.874 134.748H392.856C391.211 134.753 389.666 135.398 388.506 136.563C387.346 137.73 386.711 139.278 386.715 140.922C386.715 141.148 386.734 141.391 386.767 141.669C386.788 141.836 386.68 141.994 386.516 142.035C383.975 142.673 381.552 143.685 379.316 145.042C379.171 145.13 378.985 145.095 378.88 144.963C378.708 144.744 378.546 144.56 378.385 144.4C375.977 142.006 372.068 142.018 369.674 144.426C368.515 145.593 367.878 147.141 367.883 148.785C367.887 150.428 368.533 151.973 369.7 153.132C369.861 153.293 370.04 153.448 370.265 153.623C370.398 153.726 370.433 153.913 370.347 154.059C369.004 156.303 368.006 158.73 367.381 161.275C367.34 161.439 367.184 161.548 367.018 161.527C366.736 161.494 366.485 161.483 366.27 161.48C364.624 161.485 363.079 162.13 361.92 163.295C360.761 164.462 360.125 166.01 360.129 167.654C360.14 171.043 362.902 173.793 366.288 173.793H366.306C366.532 173.793 366.777 173.774 367.053 173.741C367.224 173.721 367.378 173.827 367.419 173.992C368.058 176.533 369.069 178.954 370.427 181.191C370.515 181.335 370.481 181.522 370.348 181.627C370.13 181.8 369.946 181.961 369.786 182.122C368.627 183.289 367.991 184.835 367.995 186.48C368 188.124 368.645 189.669 369.812 190.828C372.22 193.221 376.127 193.21 378.523 190.802C378.684 190.641 378.845 190.456 379.015 190.237C379.08 190.153 379.179 190.108 379.279 190.108L379.275 190.105ZM392.95 179.945C386.134 179.945 380.577 174.412 380.557 167.593C380.548 164.284 381.827 161.17 384.162 158.823C386.495 156.476 389.605 155.179 392.915 155.17H392.953C399.769 155.17 405.326 160.702 405.346 167.522C405.355 170.83 404.076 173.944 401.741 176.291C399.408 178.639 396.298 179.936 392.988 179.945H392.95ZM392.985 179.277C396.117 179.267 399.057 178.04 401.266 175.819C403.473 173.6 404.684 170.652 404.675 167.523C404.656 161.073 399.399 155.838 392.95 155.838H392.915C389.783 155.847 386.843 157.075 384.634 159.295C382.427 161.515 381.216 164.462 381.225 167.593C381.244 174.043 386.501 179.278 392.95 179.278H392.985V179.277Z" fill="#364349"/>
<path d="M466.021 196.368C465.806 196.368 465.596 196.386 465.388 196.412C464.862 194.319 464.03 192.347 462.939 190.55C463.103 190.421 463.264 190.283 463.416 190.131C465.449 188.086 465.44 184.782 463.395 182.749C461.35 180.717 458.043 180.727 456.01 182.771C455.858 182.922 455.722 183.083 455.594 183.249C453.789 182.169 451.813 181.349 449.715 180.835C449.739 180.627 449.756 180.416 449.756 180.202C449.747 177.318 447.403 174.99 444.52 174.997C441.636 175.006 439.304 177.349 439.314 180.232C439.314 180.446 439.332 180.657 439.358 180.866C437.263 181.391 435.291 182.224 433.492 183.314C433.363 183.15 433.225 182.989 433.073 182.837C431.028 180.805 427.721 180.815 425.689 182.859C423.656 184.903 423.665 188.207 425.71 190.24C425.862 190.392 426.023 190.527 426.188 190.656C425.108 192.461 424.288 194.436 423.773 196.534C423.565 196.51 423.354 196.493 423.139 196.493C420.256 196.502 417.924 198.844 417.933 201.728C417.943 204.611 420.287 206.94 423.17 206.932C423.386 206.932 423.595 206.914 423.803 206.888C424.329 208.982 425.161 210.953 426.252 212.75C426.088 212.88 425.927 213.018 425.775 213.17C423.743 215.214 423.752 218.519 425.796 220.551C427.841 222.584 431.148 222.573 433.181 220.53C433.333 220.378 433.47 220.217 433.597 220.051C435.402 221.131 437.378 221.952 439.476 222.465C439.452 222.673 439.435 222.885 439.435 223.099C439.444 225.982 441.788 228.311 444.672 228.303C447.555 228.294 449.887 225.952 449.878 223.068C449.878 222.854 449.859 222.643 449.834 222.435C451.928 221.909 453.9 221.077 455.699 219.986C455.828 220.15 455.966 220.311 456.118 220.463C458.163 222.496 461.47 222.485 463.503 220.442C465.535 218.397 465.526 215.093 463.481 213.06C463.329 212.908 463.168 212.773 463.003 212.644C464.083 210.839 464.903 208.865 465.418 206.767C465.626 206.791 465.838 206.808 466.052 206.808C468.935 206.799 471.267 204.456 471.258 201.573C471.249 198.689 468.905 196.361 466.021 196.368ZM444.623 211.344C439.268 211.359 434.913 207.032 434.897 201.679C434.882 196.326 439.21 191.973 444.567 191.957C449.922 191.941 454.277 196.268 454.292 201.621C454.307 206.975 449.979 211.327 444.623 211.344Z" fill="#E2EAFF"/>
<path d="M444.656 231.983C441.6 231.983 439.11 229.502 439.101 226.445C439.101 226.322 439.105 226.198 439.115 226.064C437.205 225.569 435.378 224.818 433.673 223.829C433.586 223.931 433.501 224.024 433.415 224.11C431.255 226.281 427.73 226.292 425.558 224.133C424.505 223.088 423.923 221.695 423.919 220.211C423.914 218.728 424.488 217.331 425.535 216.279C425.62 216.193 425.713 216.108 425.815 216.021C424.815 214.324 424.054 212.501 423.548 210.596C423.408 210.607 423.288 210.613 423.15 210.613C420.094 210.613 417.604 208.132 417.595 205.076C417.59 203.592 418.164 202.196 419.211 201.143C420.258 200.092 421.651 199.51 423.135 199.505C423.261 199.504 423.381 199.51 423.516 199.519C424.011 197.611 424.762 195.783 425.751 194.08C425.649 193.994 425.556 193.909 425.47 193.822C424.417 192.777 423.835 191.384 423.831 189.9C423.826 188.416 424.4 187.02 425.447 185.968C427.607 183.796 431.132 183.787 433.304 185.946C433.391 186.031 433.476 186.123 433.562 186.225C435.261 185.227 437.084 184.466 438.99 183.96C438.979 183.826 438.973 183.7 438.973 183.579C438.969 182.095 439.543 180.698 440.59 179.647C441.636 178.594 443.029 178.013 444.514 178.01H444.53C447.587 178.01 450.077 180.49 450.086 183.547C450.086 183.668 450.081 183.794 450.072 183.927C451.982 184.422 453.809 185.172 455.514 186.161C455.6 186.059 455.685 185.967 455.772 185.88C457.932 183.708 461.456 183.699 463.629 185.857C464.681 186.903 465.263 188.297 465.268 189.78C465.272 191.264 464.698 192.66 463.652 193.711C463.565 193.798 463.474 193.883 463.372 193.971C464.372 195.668 465.133 197.491 465.638 199.396C465.772 199.385 465.898 199.379 466.02 199.379C469.085 199.387 471.583 201.854 471.592 204.916C471.597 206.401 471.022 207.797 469.976 208.848C468.929 209.901 467.536 210.482 466.052 210.485C465.927 210.485 465.804 210.481 465.67 210.472C465.175 212.38 464.425 214.207 463.436 215.91C463.538 215.997 463.63 216.082 463.717 216.167C464.77 217.212 465.351 218.607 465.356 220.089C465.361 221.572 464.786 222.97 463.74 224.021C461.579 226.193 458.055 226.202 455.883 224.044C455.796 223.959 455.711 223.866 455.623 223.764C453.926 224.762 452.102 225.523 450.195 226.029C450.206 226.163 450.212 226.289 450.212 226.41C450.216 227.895 449.642 229.291 448.595 230.342C447.549 231.393 446.156 231.975 444.672 231.98H444.655L444.656 231.983ZM433.596 223.062C433.653 223.062 433.714 223.077 433.767 223.109C435.567 224.186 437.513 224.986 439.555 225.485C439.719 225.525 439.827 225.681 439.807 225.85C439.781 226.075 439.769 226.263 439.769 226.444C439.777 229.133 441.969 231.314 444.656 231.314H444.672C445.976 231.31 447.202 230.799 448.123 229.874C449.044 228.949 449.548 227.72 449.545 226.415C449.545 226.236 449.531 226.041 449.504 225.821C449.483 225.654 449.59 225.497 449.755 225.455C451.793 224.943 453.735 224.132 455.527 223.044C455.672 222.957 455.858 222.991 455.963 223.123C456.1 223.296 456.229 223.442 456.357 223.57C458.268 225.469 461.368 225.459 463.269 223.55C464.189 222.625 464.694 221.396 464.691 220.091C464.686 218.786 464.174 217.56 463.249 216.641C463.121 216.515 462.975 216.387 462.801 216.252C462.667 216.149 462.632 215.962 462.719 215.816C463.796 214.017 464.596 212.071 465.096 210.031C465.137 209.867 465.289 209.758 465.461 209.779C465.684 209.805 465.885 209.814 466.055 209.817C467.36 209.812 468.586 209.302 469.506 208.375C470.427 207.45 470.931 206.221 470.928 204.916C470.921 202.227 468.728 200.046 466.041 200.046H466.026C465.845 200.046 465.651 200.06 465.432 200.087C465.262 200.107 465.108 200 465.066 199.836C464.554 197.801 463.743 195.859 462.655 194.065C462.567 193.921 462.602 193.734 462.734 193.629C462.912 193.489 463.053 193.365 463.181 193.236C464.101 192.311 464.606 191.083 464.602 189.778C464.598 188.473 464.086 187.247 463.161 186.328C461.248 184.429 458.148 184.439 456.249 186.35C456.121 186.477 455.998 186.62 455.858 186.798C455.755 186.93 455.568 186.966 455.424 186.88C453.625 185.803 451.678 185.004 449.636 184.504C449.472 184.464 449.364 184.308 449.384 184.139C449.41 183.919 449.423 183.726 449.422 183.547C449.414 180.858 447.222 178.677 444.535 178.677H444.52C443.215 178.681 441.989 179.191 441.068 180.118C440.148 181.043 439.643 182.272 439.646 183.577C439.646 183.758 439.66 183.946 439.687 184.171C439.709 184.338 439.601 184.495 439.437 184.537C437.399 185.049 435.457 185.86 433.664 186.947C433.52 187.035 433.333 187 433.228 186.868C433.091 186.694 432.962 186.549 432.835 186.421C430.923 184.522 427.823 184.531 425.922 186.441C425.002 187.366 424.498 188.595 424.501 189.9C424.504 191.205 425.016 192.429 425.942 193.35C426.07 193.476 426.217 193.603 426.39 193.739C426.524 193.842 426.559 194.029 426.472 194.175C425.395 195.973 424.595 197.919 424.095 199.959C424.054 200.124 423.902 200.233 423.73 200.212C423.506 200.186 423.311 200.168 423.136 200.174C421.832 200.178 420.606 200.689 419.685 201.615C418.764 202.54 418.26 203.769 418.263 205.074C418.271 207.763 420.463 209.945 423.15 209.945H423.165C423.346 209.945 423.534 209.931 423.759 209.904C423.925 209.884 424.083 209.99 424.125 210.154C424.637 212.191 425.449 214.133 426.536 215.925C426.624 216.07 426.589 216.257 426.457 216.361C426.283 216.498 426.137 216.627 426.011 216.755C425.09 217.68 424.586 218.909 424.589 220.214C424.593 221.519 425.105 222.743 426.03 223.664C427.941 225.563 431.042 225.554 432.942 223.644C433.07 223.517 433.198 223.369 433.331 223.196C433.397 223.112 433.495 223.067 433.596 223.067V223.062ZM444.593 215.023C439.075 215.023 434.577 210.545 434.562 205.026C434.554 202.348 435.59 199.826 437.478 197.927C439.367 196.028 441.884 194.977 444.564 194.969H444.594C450.113 194.969 454.61 199.447 454.626 204.966C454.643 210.496 450.156 215.006 444.624 215.023H444.594H444.593ZM444.593 195.636H444.565C442.065 195.644 439.716 196.623 437.952 198.396C436.189 200.169 435.223 202.522 435.23 205.023C435.245 210.174 439.443 214.355 444.593 214.355H444.62C449.782 214.339 453.97 210.128 453.955 204.968C453.94 199.817 449.742 195.636 444.593 195.636Z" fill="#364349"/>
<path d="M202.757 11.3342H88.028V164.214H202.757V11.3342Z" fill="white"/>
<path d="M202.757 164.549H88.028C87.8427 164.549 87.6938 164.4 87.6938 164.214V11.3342C87.6938 11.1489 87.8427 11 88.028 11H202.757C202.942 11 203.091 11.1489 203.091 11.3342V164.214C203.091 164.4 202.942 164.549 202.757 164.549ZM88.3622 163.88H202.423V11.6684H88.3622V163.88Z" fill="#364349"/>
<path d="M191.689 29.4483H99.0964V47.8297H191.689V29.4483Z" fill="#E2EAFF"/>
<path d="M109.012 45.4568C105.252 45.4568 102.192 42.3973 102.192 38.6374C102.192 34.8776 105.252 31.8181 109.012 31.8181C112.772 31.8181 115.831 34.8776 115.831 38.6374C115.831 42.3973 112.772 45.4568 109.012 45.4568ZM109.012 32.488C105.621 32.488 102.862 35.2468 102.862 38.639C102.862 42.0312 105.621 44.7884 109.012 44.7884C112.402 44.7884 115.163 42.0296 115.163 38.639C115.163 35.2483 112.404 32.488 109.012 32.488Z" fill="white"/>
<path d="M184.444 38.9732H139.858C139.672 38.9732 139.523 38.8243 139.523 38.639C139.523 38.4536 139.672 38.3047 139.858 38.3047H184.444C184.629 38.3047 184.778 38.4536 184.778 38.639C184.778 38.8243 184.629 38.9732 184.444 38.9732Z" fill="white"/>
<path d="M136.234 38.9732H122.742C122.556 38.9732 122.407 38.8243 122.407 38.639C122.407 38.4536 122.556 38.3047 122.742 38.3047H136.234C136.42 38.3047 136.569 38.4536 136.569 38.639C136.569 38.8243 136.42 38.9732 136.234 38.9732Z" fill="white"/>
<path d="M184.444 35.3501H167.427C167.241 35.3501 167.092 35.2012 167.092 35.0158C167.092 34.8305 167.241 34.6816 167.427 34.6816H184.444C184.629 34.6816 184.778 34.8305 184.778 35.0158C184.778 35.2012 184.629 35.3501 184.444 35.3501Z" fill="white"/>
<path d="M163.804 35.3501H122.742C122.556 35.3501 122.407 35.2012 122.407 35.0158C122.407 34.8305 122.556 34.6816 122.742 34.6816H163.804C163.989 34.6816 164.138 34.8305 164.138 35.0158C164.138 35.2012 163.989 35.3501 163.804 35.3501Z" fill="white"/>
<path d="M156.974 42.5963H122.742C122.556 42.5963 122.407 42.4474 122.407 42.2621C122.407 42.0767 122.556 41.9279 122.742 41.9279H156.974C157.159 41.9279 157.308 42.0767 157.308 42.2621C157.308 42.4474 157.159 42.5963 156.974 42.5963Z" fill="white"/>
<path d="M191.689 87.9467H99.0964V106.328H191.689V87.9467Z" fill="#E2EAFF"/>
<path d="M109.012 103.955C105.252 103.955 102.192 100.896 102.192 97.1359C102.192 93.3761 105.252 90.3166 109.012 90.3166C112.772 90.3166 115.831 93.3761 115.831 97.1359C115.831 100.896 112.772 103.955 109.012 103.955ZM109.012 90.9865C105.621 90.9865 102.862 93.7452 102.862 97.1359C102.862 100.527 105.621 103.287 109.012 103.287C112.402 103.287 115.163 100.528 115.163 97.1359C115.163 93.7437 112.404 90.9865 109.012 90.9865Z" fill="white"/>
<path d="M184.444 97.4701H138.147C137.962 97.4701 137.813 97.3213 137.813 97.1359C137.813 96.9506 137.962 96.8017 138.147 96.8017H184.444C184.629 96.8017 184.778 96.9506 184.778 97.1359C184.778 97.3213 184.629 97.4701 184.444 97.4701Z" fill="white"/>
<path d="M134.524 97.4701H122.74C122.555 97.4701 122.406 97.3213 122.406 97.1359C122.406 96.9506 122.555 96.8017 122.74 96.8017H134.524C134.709 96.8017 134.858 96.9506 134.858 97.1359C134.858 97.3213 134.709 97.4701 134.524 97.4701Z" fill="white"/>
<path d="M184.444 93.8485H165.276C165.09 93.8485 164.941 93.6997 164.941 93.5143C164.941 93.329 165.09 93.1801 165.276 93.1801H184.444C184.629 93.1801 184.778 93.329 184.778 93.5143C184.778 93.6997 184.629 93.8485 184.444 93.8485Z" fill="white"/>
<path d="M161.654 93.8485H122.742C122.556 93.8485 122.407 93.6997 122.407 93.5143C122.407 93.329 122.556 93.1801 122.742 93.1801H161.654C161.839 93.1801 161.988 93.329 161.988 93.5143C161.988 93.6997 161.839 93.8485 161.654 93.8485Z" fill="white"/>
<path d="M141.049 101.093H122.74C122.555 101.093 122.406 100.944 122.406 100.759C122.406 100.574 122.555 100.425 122.74 100.425H141.049C141.234 100.425 141.383 100.574 141.383 100.759C141.383 100.944 141.234 101.093 141.049 101.093Z" fill="white"/>
<path d="M191.689 58.6975H99.0964V77.0789H191.689V58.6975Z" fill="#E2EAFF"/>
<path d="M184.444 68.2224H149.016C148.831 68.2224 148.682 68.0735 148.682 67.8882C148.682 67.7029 148.831 67.554 149.016 67.554H184.444C184.629 67.554 184.778 67.7029 184.778 67.8882C184.778 68.0735 184.629 68.2224 184.444 68.2224Z" fill="#364349"/>
<path d="M145.393 68.2224H122.742C122.556 68.2224 122.407 68.0735 122.407 67.8882C122.407 67.7029 122.556 67.554 122.742 67.554H145.393C145.579 67.554 145.727 67.7029 145.727 67.8882C145.727 68.0735 145.579 68.2224 145.393 68.2224Z" fill="#364349"/>
<path d="M184.444 64.5993H139.858C139.672 64.5993 139.523 64.4504 139.523 64.2651C139.523 64.0798 139.672 63.9309 139.858 63.9309H184.444C184.629 63.9309 184.778 64.0798 184.778 64.2651C184.778 64.4504 184.629 64.5993 184.444 64.5993Z" fill="#364349"/>
<path d="M136.234 64.5993H122.742C122.556 64.5993 122.407 64.4504 122.407 64.2651C122.407 64.0798 122.556 63.9309 122.742 63.9309H136.234C136.42 63.9309 136.569 64.0798 136.569 64.2651C136.569 64.4504 136.42 64.5993 136.234 64.5993Z" fill="#364349"/>
<path d="M169.439 71.844H122.742C122.556 71.844 122.407 71.6951 122.407 71.5098C122.407 71.3245 122.556 71.1756 122.742 71.1756H169.439C169.625 71.1756 169.774 71.3245 169.774 71.5098C169.774 71.6951 169.625 71.844 169.439 71.844Z" fill="#364349"/>
<path d="M109.012 74.3734C112.593 74.3734 115.497 71.4699 115.497 67.8882C115.497 64.3066 112.593 61.4031 109.012 61.4031C105.43 61.4031 102.527 64.3066 102.527 67.8882C102.527 71.4699 105.43 74.3734 109.012 74.3734Z" fill="#5479F7"/>
<path d="M108.673 70.9128C108.585 70.9128 108.5 70.8778 108.436 70.8156L106.027 68.4062C105.896 68.2756 105.896 68.0644 106.027 67.9338C106.157 67.8031 106.368 67.8031 106.499 67.9338L108.635 70.0697L111.775 65.8738C111.886 65.7265 112.094 65.6946 112.243 65.807C112.39 65.9179 112.421 66.1275 112.31 66.2749L108.939 70.7806C108.881 70.8581 108.791 70.9067 108.694 70.9143C108.687 70.9143 108.678 70.9143 108.67 70.9143L108.673 70.9128Z" fill="white"/>
<path d="M122.673 147.121H114.629V155.165H122.673V147.121Z" fill="#E2EAFF"/>
<path d="M133.327 147.121H125.283V155.165H133.327V147.121Z" fill="#E2EAFF"/>
<path d="M143.979 147.121H135.935V155.165H143.979V147.121Z" fill="#E2EAFF"/>
<path d="M154.631 147.121H146.587V155.165H154.631V147.121Z" fill="#5479F7"/>
<path d="M165.283 147.121H157.239V155.165H165.283V147.121Z" fill="#E2EAFF"/>
<path d="M175.935 147.121H167.891V155.165H175.935V147.121Z" fill="#E2EAFF"/>
<path d="M179.803 121.152H112.377C112.191 121.152 112.042 121.003 112.042 120.818C112.042 120.632 112.191 120.483 112.377 120.483H179.803C179.988 120.483 180.137 120.632 180.137 120.818C180.137 121.003 179.988 121.152 179.803 121.152Z" fill="#364349"/>
<path d="M172.558 128.398H119.623C119.437 128.398 119.289 128.249 119.289 128.064C119.289 127.878 119.437 127.73 119.623 127.73H172.558C172.744 127.73 172.892 127.878 172.892 128.064C172.892 128.249 172.744 128.398 172.558 128.398Z" fill="#364349"/>
<path d="M165.312 135.643H126.869C126.684 135.643 126.535 135.494 126.535 135.309C126.535 135.123 126.684 134.974 126.869 134.974H165.312C165.497 134.974 165.646 135.123 165.646 135.309C165.646 135.494 165.497 135.643 165.312 135.643Z" fill="#364349"/>
<path d="M101.884 22.8325C103.529 22.8325 104.863 21.4987 104.863 19.8535C104.863 18.2082 103.529 16.8745 101.884 16.8745C100.239 16.8745 98.905 18.2082 98.905 19.8535C98.905 21.4987 100.239 22.8325 101.884 22.8325Z" fill="white"/>
<path d="M101.884 23.1667C100.056 23.1667 98.5692 21.6794 98.5692 19.8535C98.5692 18.0275 100.056 16.5387 101.884 16.5387C103.711 16.5387 105.197 18.026 105.197 19.8535C105.197 21.681 103.71 23.1667 101.884 23.1667ZM101.884 17.2071C100.426 17.2071 99.2392 18.3936 99.2392 19.8519C99.2392 21.3103 100.426 22.4967 101.884 22.4967C103.342 22.4967 104.529 21.3103 104.529 19.8519C104.529 18.3936 103.342 17.2071 101.884 17.2071Z" fill="#364349"/>
<path d="M110.822 22.8325C112.468 22.8325 113.802 21.4987 113.802 19.8535C113.802 18.2082 112.468 16.8745 110.822 16.8745C109.177 16.8745 107.843 18.2082 107.843 19.8535C107.843 21.4987 109.177 22.8325 110.822 22.8325Z" fill="white"/>
<path d="M110.822 23.1667C108.995 23.1667 107.508 21.6794 107.508 19.8535C107.508 18.0275 108.995 16.5387 110.822 16.5387C112.65 16.5387 114.137 18.026 114.137 19.8535C114.137 21.681 112.65 23.1667 110.822 23.1667ZM110.822 17.2071C109.364 17.2071 108.178 18.3936 108.178 19.8519C108.178 21.3103 109.364 22.4967 110.822 22.4967C112.281 22.4967 113.467 21.3103 113.467 19.8519C113.467 18.3936 112.281 17.2071 110.822 17.2071Z" fill="#364349"/>
<path d="M119.761 22.8325C121.406 22.8325 122.74 21.4987 122.74 19.8535C122.74 18.2082 121.406 16.8745 119.761 16.8745C118.116 16.8745 116.782 18.2082 116.782 19.8535C116.782 21.4987 118.116 22.8325 119.761 22.8325Z" fill="white"/>
<path d="M119.761 23.1667C117.934 23.1667 116.446 21.6794 116.446 19.8535C116.446 18.0275 117.934 16.5387 119.761 16.5387C121.589 16.5387 123.074 18.026 123.074 19.8535C123.074 21.681 121.587 23.1667 119.761 23.1667ZM119.761 17.2071C118.303 17.2071 117.116 18.3936 117.116 19.8519C117.116 21.3103 118.303 22.4967 119.761 22.4967C121.219 22.4967 122.406 21.3103 122.406 19.8519C122.406 18.3936 121.219 17.2071 119.761 17.2071Z" fill="#364349"/>
<path d="M191.689 18.3754H184.444C184.259 18.3754 184.11 18.2265 184.11 18.0411C184.11 17.8558 184.259 17.7069 184.444 17.7069H191.689C191.874 17.7069 192.023 17.8558 192.023 18.0411C192.023 18.2265 191.874 18.3754 191.689 18.3754Z" fill="#364349"/>
<path d="M191.689 21.9985H184.444C184.259 21.9985 184.11 21.8496 184.11 21.6643C184.11 21.4789 184.259 21.33 184.444 21.33H191.689C191.874 21.33 192.023 21.4789 192.023 21.6643C192.023 21.8496 191.874 21.9985 191.689 21.9985Z" fill="#364349"/>
<path d="M352.919 11.3342H238.191V164.214H352.919V11.3342Z" fill="white"/>
<path d="M352.919 164.549H238.191C238.005 164.549 237.856 164.4 237.856 164.214V11.3342C237.856 11.1489 238.005 11 238.191 11H352.919C353.105 11 353.254 11.1489 353.254 11.3342V164.214C353.254 164.4 353.105 164.549 352.919 164.549ZM238.525 163.88H352.585V11.6684H238.525V163.88Z" fill="#364349"/>
<path d="M252.142 22.8917C253.787 22.8917 255.121 21.558 255.121 19.9127C255.121 18.2674 253.787 16.9337 252.142 16.9337C250.497 16.9337 249.163 18.2674 249.163 19.9127C249.163 21.558 250.497 22.8917 252.142 22.8917Z" fill="white"/>
<path d="M252.142 23.2259C250.315 23.2259 248.827 21.7387 248.827 19.9112C248.827 18.0837 250.315 16.598 252.142 16.598C253.97 16.598 255.457 18.0852 255.457 19.9112C255.457 21.7372 253.97 23.2259 252.142 23.2259ZM252.142 17.2664C250.684 17.2664 249.497 18.4528 249.497 19.9112C249.497 21.3695 250.684 22.556 252.142 22.556C253.601 22.556 254.787 21.3695 254.787 19.9112C254.787 18.4528 253.601 17.2664 252.142 17.2664Z" fill="#364349"/>
<path d="M261.082 22.8917C262.727 22.8917 264.061 21.558 264.061 19.9127C264.061 18.2674 262.727 16.9337 261.082 16.9337C259.437 16.9337 258.103 18.2674 258.103 19.9127C258.103 21.558 259.437 22.8917 261.082 22.8917Z" fill="white"/>
<path d="M261.082 23.2259C259.255 23.2259 257.769 21.7387 257.769 19.9112C257.769 18.0837 259.256 16.598 261.082 16.598C262.908 16.598 264.397 18.0852 264.397 19.9112C264.397 21.7372 262.91 23.2259 261.082 23.2259ZM261.082 17.2664C259.624 17.2664 258.437 18.4528 258.437 19.9112C258.437 21.3695 259.624 22.556 261.082 22.556C262.541 22.556 263.727 21.3695 263.727 19.9112C263.727 18.4528 262.541 17.2664 261.082 17.2664Z" fill="#364349"/>
<path d="M270.021 22.8917C271.666 22.8917 273 21.558 273 19.9127C273 18.2674 271.666 16.9337 270.021 16.9337C268.375 16.9337 267.042 18.2674 267.042 19.9127C267.042 21.558 268.375 22.8917 270.021 22.8917Z" fill="white"/>
<path d="M270.021 23.2259C268.193 23.2259 266.708 21.7387 266.708 19.9112C266.708 18.0837 268.195 16.598 270.021 16.598C271.847 16.598 273.335 18.0852 273.335 19.9112C273.335 21.7372 271.848 23.2259 270.021 23.2259ZM270.021 17.2664C268.562 17.2664 267.376 18.4528 267.376 19.9112C267.376 21.3695 268.562 22.556 270.021 22.556C271.479 22.556 272.666 21.3695 272.666 19.9112C272.666 18.4528 271.479 17.2664 270.021 17.2664Z" fill="#364349"/>
<path d="M341.948 18.4346H334.702C334.517 18.4346 334.368 18.2857 334.368 18.1004C334.368 17.9151 334.517 17.7662 334.702 17.7662H341.948C342.134 17.7662 342.283 17.9151 342.283 18.1004C342.283 18.2857 342.134 18.4346 341.948 18.4346Z" fill="#364349"/>
<path d="M341.948 22.0577H334.702C334.517 22.0577 334.368 21.9088 334.368 21.7235C334.368 21.5382 334.517 21.3893 334.702 21.3893H341.948C342.134 21.3893 342.283 21.5382 342.283 21.7235C342.283 21.9088 342.134 22.0577 341.948 22.0577Z" fill="#364349"/>
<path d="M330.029 30.343L341.948 42.2606L330.029 54.1796V30.343Z" fill="white"/>
<path d="M330.029 54.5138C329.944 54.5138 329.858 54.4819 329.792 54.4166C329.662 54.286 329.662 54.0748 329.792 53.9442L341.474 42.2621L329.792 30.58C329.662 30.4494 329.662 30.2382 329.792 30.1076C329.923 29.9769 330.134 29.9769 330.265 30.1076L342.184 42.0266C342.314 42.1573 342.314 42.3684 342.184 42.4991L330.265 54.4181C330.199 54.4835 330.114 54.5154 330.028 54.5154L330.029 54.5138Z" fill="#364349"/>
<path d="M317.355 33.9661H283.4C281.553 33.9661 280.056 35.4631 280.056 37.3097V37.8688C280.056 39.7154 281.553 41.2124 283.4 41.2124H317.355C319.202 41.2124 320.699 39.7154 320.699 37.8688V37.3097C320.699 35.4631 319.202 33.9661 317.355 33.9661Z" fill="#E2EAFF"/>
<path d="M317.355 44.834H283.4C281.553 44.834 280.056 46.3309 280.056 48.1776V48.7366C280.056 50.5832 281.553 52.0802 283.4 52.0802H317.355C319.202 52.0802 320.699 50.5832 320.699 48.7366V48.1776C320.699 46.3309 319.202 44.834 317.355 44.834Z" fill="#E2EAFF"/>
<path d="M261.082 54.567C267.895 54.567 273.418 49.0572 273.418 42.2606C273.418 35.4639 267.895 29.9541 261.082 29.9541C254.27 29.9541 248.747 35.4639 248.747 42.2606C248.747 49.0572 254.27 54.567 261.082 54.567Z" fill="#E2EAFF"/>
<mask id="mask1_1_220" style="mask-type:luminance" maskUnits="userSpaceOnUse" x="250" y="31" width="22" height="23">
<path d="M261.082 53.0388C267.049 53.0388 271.886 48.2132 271.886 42.2606C271.886 36.3079 267.049 31.4824 261.082 31.4824C255.115 31.4824 250.278 36.3079 250.278 42.2606C250.278 48.2132 255.115 53.0388 261.082 53.0388Z" fill="white"/>
</mask>
<g mask="url(#mask1_1_220)">
<path d="M270.613 50.6902C270.145 49.0739 268.836 47.8373 267.192 47.4605L263.716 46.6615V42.2818H258.447V46.6615L254.971 47.4605C253.327 47.8388 252.018 49.0739 251.55 50.6902L250.224 57.6797H271.939L270.613 50.6902Z" fill="white"/>
<path d="M271.939 58.0139H250.224C250.123 58.0139 250.029 57.9699 249.965 57.8924C249.901 57.8149 249.876 57.7146 249.894 57.6174L251.22 50.6279C251.729 48.8657 253.134 47.538 254.895 47.1339L258.111 46.3941V42.2803C258.111 42.095 258.26 41.9461 258.445 41.9461H263.715C263.9 41.9461 264.049 42.095 264.049 42.2803V46.3941L267.265 47.1339C269.026 47.538 270.431 48.8657 270.932 50.5975C270.935 50.6082 270.937 50.6173 270.94 50.6279L272.266 57.6174C272.284 57.7146 272.258 57.8164 272.195 57.8924C272.131 57.9699 272.037 58.0139 271.936 58.0139H271.939ZM250.626 57.3455H271.535L270.288 50.7692C269.851 49.2774 268.637 48.135 267.118 47.7872L263.642 46.9881C263.49 46.9532 263.382 46.818 263.382 46.663V42.6176H258.781V46.663C258.781 46.8195 258.673 46.9532 258.521 46.9881L255.045 47.7872C253.522 48.1366 252.305 49.2865 251.87 50.7844L250.626 57.347V57.3455Z" fill="#364349"/>
<path d="M265.453 38.9519C265.263 38.9048 265.07 38.9231 264.892 38.9914C264.74 36.5821 263.094 34.949 261.082 34.949C259.071 34.949 257.424 36.5821 257.272 38.9914C257.093 38.9231 256.902 38.9048 256.712 38.9519C256.147 39.0917 255.825 39.7434 255.989 40.4072C256.154 41.0711 256.745 41.4965 257.31 41.3567C257.401 41.3339 257.485 41.2974 257.562 41.2504C258.144 43.0292 259.501 44.3919 261.081 44.3919C262.661 44.3919 264.019 43.0292 264.601 41.2504C264.678 41.2974 264.762 41.3339 264.853 41.3567C265.418 41.4965 266.009 41.0726 266.174 40.4072C266.34 39.7434 266.016 39.0917 265.451 38.9519H265.453Z" fill="white"/>
<path d="M261.081 44.7246C259.537 44.7246 258.077 43.5184 257.363 41.6863C256.628 41.8504 255.872 41.3187 255.664 40.4878C255.554 40.0487 255.616 39.59 255.834 39.2284C256.017 38.9215 256.302 38.7073 256.63 38.6268C256.742 38.5995 256.858 38.5873 256.975 38.5919C257.275 36.2646 258.952 34.6133 261.081 34.6133C263.209 34.6133 264.888 36.2646 265.188 38.5919C265.302 38.5873 265.419 38.5995 265.532 38.6268C265.861 38.7089 266.144 38.9231 266.328 39.2284C266.545 39.59 266.607 40.0487 266.498 40.4878C266.291 41.3187 265.535 41.8534 264.798 41.6863C264.084 43.5169 262.624 44.7246 261.081 44.7246ZM257.562 40.9146C257.602 40.9146 257.641 40.9222 257.678 40.9359C257.774 40.9708 257.848 41.0483 257.88 41.1455C258.45 42.8865 259.736 44.0562 261.081 44.0562C262.425 44.0562 263.713 42.8865 264.283 41.1455C264.315 41.0483 264.389 40.9708 264.485 40.9359C264.581 40.901 264.687 40.9101 264.775 40.9632C264.827 40.9951 264.882 41.0179 264.935 41.0316C265.316 41.1258 265.729 40.8098 265.851 40.3267C265.918 40.0594 265.883 39.7844 265.757 39.5748C265.691 39.4669 265.571 39.3256 265.372 39.277C265.255 39.2481 265.134 39.2573 265.011 39.3044C264.912 39.3423 264.801 39.3302 264.71 39.2725C264.62 39.2147 264.564 39.119 264.556 39.0127C264.42 36.8525 262.958 35.2832 261.081 35.2832C259.203 35.2832 257.742 36.8525 257.605 39.0127C257.599 39.119 257.541 39.2147 257.452 39.2725C257.362 39.3302 257.251 39.3408 257.151 39.3044C257.028 39.2573 256.906 39.2481 256.789 39.277C256.59 39.3256 256.47 39.4669 256.405 39.5748C256.279 39.7859 256.244 40.0594 256.311 40.3267C256.431 40.8113 256.839 41.1273 257.227 41.0316C257.28 41.0179 257.333 40.9951 257.386 40.9632C257.439 40.9313 257.5 40.9146 257.559 40.9146H257.562Z" fill="#364349"/>
<path d="M262.372 33.1003C259.106 32.5534 255.311 33.2324 256.915 38.364L257.332 39.5945L257.998 40.0457C257.998 40.0457 257.812 36.6626 258.873 36.4864C259.878 36.3193 259.941 36.9847 261.148 36.9543C262.354 36.9847 262.418 36.3208 263.422 36.4864C264.484 36.6626 264.297 40.0457 264.297 40.0457L264.964 39.5945L265.38 38.364C266.44 34.3763 264.74 32.804 262.369 33.1003H262.372Z" fill="white"/>
<path d="M264.3 40.3814C264.244 40.3814 264.186 40.3677 264.134 40.3374C264.023 40.2751 263.958 40.1551 263.966 40.0275C264.046 38.5676 263.821 36.8905 263.37 36.816C262.964 36.7507 262.778 36.8388 262.495 36.9771C262.193 37.1229 261.811 37.3037 261.141 37.2885C260.481 37.3022 260.107 37.1229 259.805 36.9771C259.522 36.8403 259.335 36.7507 258.93 36.816C258.478 36.8905 258.254 38.5691 258.334 40.0275C258.342 40.1535 258.276 40.2736 258.166 40.3374C258.055 40.3996 257.919 40.3951 257.813 40.3237L257.146 39.8725C257.085 39.8315 257.04 39.7722 257.017 39.7024L256.601 38.4719C255.966 36.4423 256.093 34.9019 256.976 33.8887C258.305 32.362 260.912 32.5215 262.381 32.7615C263.592 32.6217 264.607 32.9529 265.251 33.6897C265.852 34.3794 266.42 35.7648 265.706 38.4491L265.283 39.7008C265.26 39.7707 265.214 39.83 265.153 39.871L264.487 40.3222C264.43 40.3602 264.365 40.3799 264.3 40.3799V40.3814ZM263.122 36.1263C263.23 36.1263 263.349 36.1355 263.478 36.1567C264.503 36.3269 264.655 38.2319 264.651 39.4031L264.684 39.3803L265.064 38.2562C265.562 36.3785 265.454 34.9445 264.743 34.1287C264.099 33.3904 263.119 33.3418 262.411 33.4299C262.38 33.4345 262.346 33.4329 262.314 33.4284C260.064 33.0516 258.302 33.3798 257.476 34.3262C256.756 35.1526 256.674 36.4773 257.231 38.2622L257.61 39.3788L257.643 39.4016C257.638 38.2303 257.792 36.3238 258.816 36.1552C259.429 36.0534 259.782 36.2236 260.092 36.374C260.365 36.5061 260.622 36.6322 261.137 36.6185C261.664 36.6322 261.925 36.5061 262.199 36.374C262.443 36.2555 262.714 36.1248 263.118 36.1248L263.122 36.1263Z" fill="#364349"/>
</g>
<path d="M341.948 65.0474H249.163V153.345H341.948V65.0474Z" fill="#E2EAFF"/>
<path d="M333.493 130.619C333.493 130.619 319.216 93.487 306.162 93.487C293.108 93.487 286.174 122.051 281.279 122.051C276.384 122.051 275.569 111.034 270.265 111.034C264.962 111.034 257.62 130.62 257.62 130.62C257.62 130.62 333.494 129.94 333.494 130.62L333.493 130.619Z" fill="white"/>
<path d="M277.968 99.2043C281.122 99.201 283.676 96.6403 283.673 93.4849C283.67 90.3294 281.11 87.7741 277.956 87.7774C274.803 87.7807 272.249 90.3414 272.252 93.4968C272.255 96.6523 274.815 99.2076 277.968 99.2043Z" fill="white"/>
<path d="M507.679 11.3342H392.95V164.214H507.679V11.3342Z" fill="white"/>
<path d="M507.679 164.549H392.95C392.765 164.549 392.616 164.4 392.616 164.214V11.3342C392.616 11.1489 392.765 11 392.95 11H507.679C507.864 11 508.013 11.1489 508.013 11.3342V164.214C508.013 164.4 507.864 164.549 507.679 164.549ZM393.284 163.88H507.345V11.6684H393.284V163.88Z" fill="#364349"/>
<path d="M406.902 22.8917C408.547 22.8917 409.881 21.558 409.881 19.9127C409.881 18.2674 408.547 16.9337 406.902 16.9337C405.256 16.9337 403.923 18.2674 403.923 19.9127C403.923 21.558 405.256 22.8917 406.902 22.8917Z" fill="white"/>
<path d="M406.902 23.2259C405.074 23.2259 403.587 21.7387 403.587 19.9112C403.587 18.0837 405.074 16.598 406.902 16.598C408.729 16.598 410.215 18.0852 410.215 19.9112C410.215 21.7372 408.728 23.2259 406.902 23.2259ZM406.902 17.2664C405.443 17.2664 404.257 18.4528 404.257 19.9112C404.257 21.3695 405.443 22.556 406.902 22.556C408.36 22.556 409.546 21.3695 409.546 19.9112C409.546 18.4528 408.36 17.2664 406.902 17.2664Z" fill="#364349"/>
<path d="M415.84 22.8917C417.485 22.8917 418.819 21.558 418.819 19.9127C418.819 18.2674 417.485 16.9337 415.84 16.9337C414.195 16.9337 412.861 18.2674 412.861 19.9127C412.861 21.558 414.195 22.8917 415.84 22.8917Z" fill="white"/>
<path d="M415.84 23.2259C414.013 23.2259 412.525 21.7387 412.525 19.9112C412.525 18.0837 414.013 16.598 415.84 16.598C417.668 16.598 419.155 18.0852 419.155 19.9112C419.155 21.7372 417.668 23.2259 415.84 23.2259ZM415.84 17.2664C414.382 17.2664 413.195 18.4528 413.195 19.9112C413.195 21.3695 414.382 22.556 415.84 22.556C417.298 22.556 418.485 21.3695 418.485 19.9112C418.485 18.4528 417.298 17.2664 415.84 17.2664Z" fill="#364349"/>
<path d="M424.779 22.8917C426.424 22.8917 427.758 21.558 427.758 19.9127C427.758 18.2674 426.424 16.9337 424.779 16.9337C423.133 16.9337 421.8 18.2674 421.8 19.9127C421.8 21.558 423.133 22.8917 424.779 22.8917Z" fill="white"/>
<path d="M424.779 23.2259C422.951 23.2259 421.465 21.7387 421.465 19.9112C421.465 18.0837 422.953 16.598 424.779 16.598C426.605 16.598 428.093 18.0852 428.093 19.9112C428.093 21.7372 426.606 23.2259 424.779 23.2259ZM424.779 17.2664C423.32 17.2664 422.134 18.4528 422.134 19.9112C422.134 21.3695 423.32 22.556 424.779 22.556C426.237 22.556 427.423 21.3695 427.423 19.9112C427.423 18.4528 426.237 17.2664 424.779 17.2664Z" fill="#364349"/>
<path d="M496.706 18.4346H489.461C489.276 18.4346 489.127 18.2857 489.127 18.1004C489.127 17.9151 489.276 17.7662 489.461 17.7662H496.706C496.891 17.7662 497.04 17.9151 497.04 18.1004C497.04 18.2857 496.891 18.4346 496.706 18.4346Z" fill="#364349"/>
<path d="M496.706 22.0577H489.461C489.276 22.0577 489.127 21.9088 489.127 21.7235C489.127 21.5382 489.276 21.3893 489.461 21.3893H496.706C496.891 21.3893 497.04 21.5382 497.04 21.7235C497.04 21.9088 496.891 22.0577 496.706 22.0577Z" fill="#364349"/>
<path d="M427.759 37.7169H403.923C403.737 37.7169 403.588 37.568 403.588 37.3827C403.588 37.1973 403.737 37.0484 403.923 37.0484H427.759C427.944 37.0484 428.093 37.1973 428.093 37.3827C428.093 37.568 427.944 37.7169 427.759 37.7169Z" fill="#364349"/>
<path d="M411.372 44.6274H403.921V52.0787H411.372V44.6274Z" fill="#E2EAFF"/>
<path d="M422.447 44.6274H414.995V52.0787H422.447V44.6274Z" fill="#E2EAFF"/>
<path d="M433.521 44.6274H426.07V52.0787H433.521V44.6274Z" fill="#E2EAFF"/>
<path d="M444.594 44.6274H437.143V52.0787H444.594V44.6274Z" fill="#E2EAFF"/>
<path d="M496.706 44.6274H456.035V52.0787H496.706V44.6274Z" fill="#5479F7"/>
<path d="M496.706 37.7169H484.787C484.602 37.7169 484.453 37.568 484.453 37.3827C484.453 37.1973 484.602 37.0484 484.787 37.0484H496.706C496.891 37.0484 497.04 37.1973 497.04 37.3827C497.04 37.568 496.891 37.7169 496.706 37.7169Z" fill="#364349"/>
<path d="M427.759 63.2822H403.923C403.737 63.2822 403.588 63.1333 403.588 62.948C403.588 62.7627 403.737 62.6138 403.923 62.6138H427.759C427.944 62.6138 428.093 62.7627 428.093 62.948C428.093 63.1333 427.944 63.2822 427.759 63.2822Z" fill="#364349"/>
<path d="M411.372 70.1927H403.921V77.644H411.372V70.1927Z" fill="#E2EAFF"/>
<path d="M422.447 70.1927H414.995V77.644H422.447V70.1927Z" fill="#E2EAFF"/>
<path d="M433.521 70.1927H426.07V77.644H433.521V70.1927Z" fill="#E2EAFF"/>
<path d="M444.594 70.1927H437.143V77.644H444.594V70.1927Z" fill="#E2EAFF"/>
<path d="M496.706 70.1927H456.035V77.644H496.706V70.1927Z" fill="#E2EAFF"/>
<path d="M496.706 63.2822H484.787C484.602 63.2822 484.453 63.1333 484.453 62.948C484.453 62.7627 484.602 62.6138 484.787 62.6138H496.706C496.891 62.6138 497.04 62.7627 497.04 62.948C497.04 63.1333 496.891 63.2822 496.706 63.2822Z" fill="#364349"/>
<path d="M496.706 95.7581H450.314V113.872H496.706V95.7581Z" fill="#E2EAFF"/>
<path d="M450.314 95.7581H403.921V113.872H450.314V95.7581Z" fill="white"/>
<path d="M450.314 114.205H403.921C403.736 114.205 403.587 114.056 403.587 113.871V95.7566C403.587 95.5712 403.736 95.4224 403.921 95.4224H450.314C450.499 95.4224 450.648 95.5712 450.648 95.7566V113.871C450.648 114.056 450.499 114.205 450.314 114.205ZM404.255 113.536H449.979V96.0923H404.255V113.536Z" fill="#364349"/>
<path d="M496.706 124.74H450.314V142.854H496.706V124.74Z" fill="#E2EAFF"/>
<path d="M450.314 124.74H403.921V142.854H450.314V124.74Z" fill="white"/>
<path d="M450.314 143.188H403.921C403.736 143.188 403.587 143.039 403.587 142.854V124.74C403.587 124.555 403.736 124.406 403.921 124.406H450.314C450.499 124.406 450.648 124.555 450.648 124.74V142.854C450.648 143.039 450.499 143.188 450.314 143.188ZM404.255 142.52H449.979V125.076H404.255V142.52Z" fill="#364349"/>
<path d="M234.848 88.1093H206.101C205.915 88.1093 205.766 87.9604 205.766 87.7751C205.766 87.5897 205.915 87.4409 206.101 87.4409H234.848C235.034 87.4409 235.183 87.5897 235.183 87.7751C235.183 87.9604 235.034 88.1093 234.848 88.1093Z" fill="#364349"/>
<path d="M387.308 88.1093H358.561C358.376 88.1093 358.227 87.9604 358.227 87.7751C358.227 87.5897 358.376 87.4409 358.561 87.4409H387.308C387.493 87.4409 387.642 87.5897 387.642 87.7751C387.642 87.9604 387.493 88.1093 387.308 88.1093Z" fill="#364349"/>
<path d="M314.741 229.336C314.555 229.336 314.407 229.187 314.407 229.002V190.161H300.379C300.194 190.161 300.045 190.012 300.045 189.827V167.558C300.045 167.373 300.194 167.224 300.379 167.224C300.564 167.224 300.713 167.373 300.713 167.558V189.493H314.741C314.926 189.493 315.075 189.642 315.075 189.827V229.002C315.075 229.187 314.926 229.336 314.741 229.336Z" fill="#364349"/>
<path d="M225.854 150.86L216.469 178.298L210.015 179.553C210.015 179.553 219.862 200.929 236.457 197.348C253.052 193.767 249.403 179.553 249.403 179.553L245.892 179.269C243.79 179.099 242.35 177.075 242.877 175.034L246.824 159.751C246.824 159.751 230.744 146.79 225.854 150.861V150.86Z" fill="white"/>
<path d="M232.784 198.079C227.171 198.079 221.697 195.34 216.768 190.02C212.248 185.14 209.736 179.746 209.711 179.691C209.669 179.599 209.67 179.491 209.718 179.4C209.765 179.308 209.85 179.243 209.952 179.223L216.213 178.005L225.536 150.75C225.556 150.693 225.591 150.641 225.638 150.602C230.678 146.406 246.366 158.952 247.032 159.488C247.134 159.57 247.179 159.706 247.146 159.832L243.199 175.114C242.973 175.992 243.144 176.919 243.67 177.657C244.196 178.395 245.014 178.86 245.918 178.933L249.429 179.217C249.572 179.229 249.69 179.33 249.727 179.468C249.788 179.706 251.191 185.37 248.006 190.524C245.795 194.102 241.934 196.506 236.527 197.673C235.275 197.944 234.025 198.077 232.782 198.077L232.784 198.079ZM210.508 179.798C211.943 182.649 221.47 200.239 236.387 197.021C241.609 195.896 245.326 193.591 247.437 190.175C250.123 185.827 249.353 180.969 249.13 179.866L245.865 179.602C244.764 179.512 243.766 178.945 243.126 178.048C242.485 177.148 242.277 176.02 242.552 174.95L246.444 159.877C244.735 158.531 230.584 147.601 226.138 151.06L216.785 178.408C216.745 178.522 216.649 178.605 216.532 178.628L210.508 179.799V179.798Z" fill="#364349"/>
<path d="M229.778 118.247C225.972 119.387 222.758 122.344 221.308 126.04C220.564 127.938 220.269 129.987 219.561 131.898C218.855 133.811 217.599 135.681 215.68 136.372C214.72 136.718 213.673 136.738 212.683 136.987C210.696 137.488 208.938 139.035 208.445 141.023C207.951 143.012 208.909 145.339 210.776 146.187C210.082 147.907 210.451 150.008 211.689 151.388C212.927 152.769 214.977 153.365 216.762 152.862C216.827 156.853 219.736 160.392 223.305 162.183C226.872 163.974 230.996 164.292 234.987 164.196C242.547 164.015 250.151 162.432 256.848 158.919C258.58 158.01 260.276 156.953 261.543 155.464C262.809 153.976 263.609 151.993 263.309 150.061C265.975 148.365 268.594 146.368 270.068 143.574C271.541 140.78 271.573 137.013 269.389 134.731C267.624 132.887 264.822 132.337 263.042 130.508C261.495 128.919 260.965 126.639 260.169 124.571C259.173 121.983 257.62 119.535 255.37 117.911C252.625 115.931 248.94 115.522 245.741 116.503C244.001 117.036 242.853 118.044 241.388 119.025C239.971 119.974 238.181 118.452 236.671 118.088C234.412 117.542 232.008 117.577 229.779 118.244L229.778 118.247Z" fill="#364349"/>
<path d="M231.828 159.27C233.097 162.34 235.017 165.191 237.647 167.221C240.276 169.25 243.656 170.402 246.956 170.019C252.478 169.378 256.801 164.582 258.564 159.311C260.326 154.039 260.022 148.33 259.65 142.786C259.65 142.786 257.278 134.453 251.086 131.708C249.909 143.826 229.059 134.889 234.57 151.934C234.57 151.934 230.759 147.313 228.347 147.574C225.74 147.856 223.549 150.211 223.406 152.829C223.264 155.446 225.043 158.003 227.487 158.955C228.868 159.493 230.203 159.851 231.828 159.271V159.27Z" fill="white"/>
<path d="M245.689 170.425C242.85 170.425 239.907 169.387 237.442 167.485C235.034 165.627 233.032 162.934 231.639 159.683C229.963 160.177 228.558 159.731 227.364 159.265C224.728 158.238 222.923 155.522 223.071 152.809C223.223 150.035 225.573 147.537 228.309 147.24C230.101 147.051 232.504 149.227 233.835 150.617C233.063 147.639 233.141 145.341 234.063 143.62C235.48 140.973 238.715 140.063 241.841 139.184C245.976 138.02 250.251 136.817 250.751 131.673C250.761 131.567 250.822 131.471 250.915 131.417C251.007 131.362 251.12 131.356 251.219 131.4C257.482 134.177 259.87 142.345 259.969 142.691C259.975 142.714 259.979 142.737 259.981 142.761C260.314 147.717 260.725 153.884 258.878 159.416C256.861 165.454 252.194 169.746 246.992 170.35C246.562 170.4 246.126 170.425 245.687 170.425H245.689ZM231.827 158.934C231.959 158.934 232.084 159.013 232.135 159.141C233.487 162.411 235.464 165.114 237.849 166.955C240.557 169.045 243.86 170.039 246.915 169.686C252.539 169.033 256.657 163.952 258.245 159.204C260.046 153.811 259.645 147.735 259.317 142.843C259.151 142.29 256.847 134.942 251.361 132.206C250.617 137.409 246.251 138.638 242.023 139.828C238.894 140.709 235.936 141.541 234.652 143.936C233.68 145.752 233.756 148.333 234.885 151.829C234.935 151.982 234.868 152.148 234.727 152.225C234.586 152.303 234.411 152.268 234.308 152.145C233.279 150.898 230.208 147.709 228.378 147.905C225.952 148.168 223.87 150.384 223.736 152.845C223.604 155.279 225.231 157.717 227.604 158.642C229.074 159.215 230.274 159.466 231.711 158.955C231.748 158.942 231.786 158.935 231.824 158.935L231.827 158.934Z" fill="#364349"/>
<path d="M231.292 156.046C231.216 156.046 231.14 156.02 231.078 155.969C230.057 155.115 229.185 154.108 228.483 152.977C228.386 152.821 228.435 152.614 228.591 152.517C228.748 152.42 228.954 152.469 229.051 152.625C229.715 153.696 230.542 154.648 231.506 155.457C231.648 155.575 231.667 155.786 231.549 155.928C231.484 156.007 231.388 156.048 231.292 156.048V156.046Z" fill="#364349"/>
<path d="M284.945 190.858C280.035 184.227 272.533 180.012 264.316 179.255C259.638 178.824 253.771 178.365 247.226 178.031C246.866 179.208 246.362 180.349 245.709 181.425C243.813 184.546 240.841 186.948 237.531 188.44C234.22 189.932 230.511 190.608 226.893 190.17C223.349 189.742 219.976 188.233 217.527 185.595C215.531 183.444 213.136 180.844 212.522 178.023C206.585 178.359 201.906 178.851 196.334 179.723C185.699 181.388 176.541 187.829 170.734 196.892C158.063 216.664 143.971 237.538 143.971 261.616C143.971 288.992 209.692 286.615 209.692 286.615H273.767L314.739 251.804C314.739 251.804 301.986 213.878 284.943 190.858H284.945Z" fill="#5479F7"/>
<path d="M203.849 282.164C203.365 285.43 209.692 286.615 209.692 286.615H229.298L258.492 282.863C258.492 282.863 260.771 245.246 219.496 249.791C219.496 249.791 207.041 260.627 203.851 282.165L203.849 282.164Z" fill="white"/>
<path d="M229.298 286.949H209.693C209.508 286.949 209.359 286.8 209.359 286.615C209.359 286.43 209.508 286.281 209.693 286.281H229.276L258.45 282.532C258.636 282.513 258.8 282.638 258.825 282.82C258.848 283.004 258.718 283.171 258.536 283.195L229.342 286.948C229.328 286.949 229.313 286.951 229.299 286.951L229.298 286.949Z" fill="#364349"/>
<path d="M236.989 283.343C236.972 283.343 236.957 283.343 236.94 283.34C236.758 283.314 236.63 283.144 236.658 282.96C236.963 280.868 236.472 278.541 235.275 276.409C234.271 274.621 232.785 272.935 230.733 271.254C230.344 270.935 229.925 270.606 229.454 270.4C229.285 270.325 229.208 270.128 229.282 269.959C229.357 269.791 229.553 269.712 229.723 269.788C230.271 270.028 230.732 270.388 231.157 270.736C233.275 272.47 234.813 274.219 235.859 276.081C237.127 278.34 237.647 280.818 237.32 283.056C237.296 283.221 237.153 283.341 236.99 283.341L236.989 283.343Z" fill="#364349"/>
<path d="M246.426 282.802C246.262 282.802 246.119 282.682 246.095 282.515C245.741 280.02 245.233 277.102 244.144 274.372C243.018 271.553 241.367 269.25 239.366 267.714C239.22 267.602 239.192 267.392 239.306 267.245C239.418 267.099 239.628 267.07 239.775 267.184C241.87 268.793 243.596 271.193 244.765 274.123C245.88 276.92 246.398 279.887 246.757 282.419C246.783 282.601 246.655 282.772 246.473 282.797C246.456 282.799 246.441 282.8 246.426 282.8V282.802Z" fill="#364349"/>
<path d="M253.985 282.802C253.971 282.802 253.959 282.802 253.945 282.799C253.762 282.778 253.631 282.61 253.652 282.427C254.922 271.791 247.952 265.153 247.883 265.087C247.747 264.961 247.74 264.75 247.866 264.615C247.992 264.48 248.202 264.472 248.338 264.598C248.411 264.667 255.627 271.524 254.316 282.506C254.296 282.676 254.152 282.8 253.985 282.8V282.802Z" fill="#364349"/>
<path d="M329.785 288.567H223.292C222.662 288.567 222.032 288.404 221.511 288.047C220.292 287.21 219.87 285.711 220.351 284.424C221.608 281.79 224.202 280.863 228.04 280.863H336.771L335.36 284.698C334.489 287.024 332.267 288.565 329.783 288.565L329.785 288.567Z" fill="#364349"/>
<path d="M334.992 285.864L354.03 238.088C354.419 237.113 354.477 236.017 354.103 235.036C353.486 233.414 351.953 232.394 350.287 232.394H284.837C280.893 232.394 277.376 234.88 276.061 238.597L258.365 288.567H331.005C332.761 288.567 334.341 287.496 334.991 285.864H334.992Z" fill="#364349"/>
<path d="M315.675 257.713C317.27 257.052 318.027 255.223 317.367 253.628C316.706 252.033 314.877 251.275 313.282 251.936C311.687 252.597 310.929 254.426 311.59 256.021C312.251 257.616 314.08 258.374 315.675 257.713Z" fill="#5479F7"/>
<path d="M169.745 250.808C169.563 250.808 169.414 250.662 169.411 250.479C169.408 250.296 169.553 250.142 169.739 250.139L217.351 249.235C217.543 249.22 217.688 249.38 217.691 249.563C217.694 249.747 217.549 249.901 217.363 249.904L169.751 250.808H169.745Z" fill="#364349"/>
<path d="M185.644 248.107C185.612 248.107 185.58 248.102 185.548 248.093C185.372 248.04 185.272 247.853 185.325 247.677C187.058 241.904 189.451 236.321 192.433 231.085C193.038 230.023 194.004 228.624 195.454 228.624C195.48 228.624 195.505 228.624 195.53 228.624C195.714 228.63 195.86 228.785 195.854 228.969C195.848 229.149 195.699 229.292 195.52 229.292C195.5 229.292 195.479 229.292 195.458 229.292C194.353 229.292 193.536 230.5 193.015 231.414C190.057 236.608 187.686 242.144 185.966 247.868C185.922 248.012 185.79 248.107 185.645 248.107H185.644Z" fill="#364349"/>
<path d="M137.28 242.421C138.179 241.424 139.087 240.37 139.47 239.083C139.853 237.796 139.566 236.212 138.452 235.461C137.664 234.931 136.608 234.896 135.852 234.322C134.819 233.54 134.686 231.975 135.171 230.773C135.656 229.572 136.61 228.636 137.497 227.691C139.905 225.125 142.009 222.169 142.963 218.783C143.917 215.397 143.585 211.526 141.492 208.699C139.399 205.872 135.373 204.421 132.148 205.828C129.767 206.867 128.209 209.147 126.779 211.315C123.174 216.781 119.556 222.272 116.822 228.221C114.087 234.17 112.25 240.642 112.418 247.188C112.478 249.57 112.823 252.005 113.966 254.095C115.109 256.185 117.169 257.884 119.542 258.093C123.38 258.431 124.852 254.403 127.29 252.267C130.808 249.184 134.146 245.893 137.281 242.421H137.28Z" fill="white"/>
<path d="M119.995 258.447C119.838 258.447 119.677 258.44 119.512 258.426C117.206 258.224 114.967 256.624 113.671 254.256C112.662 252.412 112.156 250.168 112.082 247.197C111.93 241.245 113.423 234.814 116.518 228.083C119.269 222.099 122.945 216.524 126.5 211.131C127.822 209.127 129.465 206.634 132.014 205.522C135.264 204.105 139.452 205.386 141.761 208.501C143.778 211.224 144.348 215.102 143.285 218.874C142.434 221.893 140.622 224.852 137.741 227.92L137.485 228.192C136.704 229.017 135.896 229.871 135.482 230.899C135.065 231.936 135.127 233.354 136.055 234.056C136.405 234.321 136.842 234.462 137.304 234.609C137.757 234.753 138.224 234.904 138.641 235.183C139.981 236.086 140.177 237.886 139.792 239.177C139.399 240.5 138.496 241.571 137.529 242.644C134.384 246.126 131.013 249.448 127.509 252.518C126.805 253.133 126.164 253.94 125.543 254.718C124.08 256.553 122.571 258.447 119.995 258.447ZM134.802 205.629C133.925 205.629 133.067 205.791 132.282 206.135C129.915 207.168 128.33 209.569 127.059 211.499C123.516 216.869 119.855 222.423 117.125 228.361C114.075 234.998 112.603 241.328 112.752 247.178C112.825 250.04 113.303 252.187 114.259 253.934C115.45 256.109 117.485 257.575 119.571 257.759C122.091 257.978 123.513 256.193 125.02 254.302C125.66 253.499 126.321 252.67 127.068 252.015C130.553 248.962 133.906 245.658 137.032 242.196C137.946 241.184 138.796 240.175 139.151 238.987C139.478 237.889 139.28 236.42 138.267 235.738C137.93 235.51 137.526 235.382 137.099 235.244C136.604 235.086 136.092 234.922 135.65 234.588C134.454 233.682 134.348 231.92 134.861 230.647C135.323 229.502 136.175 228.601 136.999 227.731L137.252 227.46C140.057 224.472 141.819 221.602 142.639 218.69C143.646 215.116 143.116 211.455 141.222 208.896C139.692 206.832 137.182 205.627 134.8 205.627L134.802 205.629Z" fill="#364349"/>
<path d="M95.2773 245.554C92.1828 240.819 91.9185 233.85 95.9958 229.929C97.6638 228.325 100.146 226.822 99.8665 224.525C99.7572 223.629 99.2088 222.85 98.6163 222.168C96.4956 219.728 93.6427 218.045 91.3078 215.808C88.9729 213.572 87.0937 210.379 87.8077 207.227C88.423 204.512 90.9235 202.48 93.6412 201.88C96.3604 201.28 99.23 201.925 101.753 203.101C109.332 206.63 114.049 214.657 115.641 222.863C117.233 231.07 116.15 239.539 114.882 247.801C114.598 249.656 114.277 251.579 113.214 253.126C108.896 259.412 97.9114 249.586 95.2757 245.553L95.2773 245.554Z" fill="white"/>
<path d="M109.332 255.508C109.308 255.508 109.284 255.508 109.259 255.508C104.125 255.449 97.1443 249.023 94.9978 245.737C91.9777 241.114 91.4385 233.847 95.7649 229.687C96.1082 229.358 96.488 229.028 96.8572 228.71C98.273 227.488 99.7374 226.222 99.5354 224.565C99.4306 223.706 98.8548 222.95 98.3641 222.386C97.1519 220.992 95.6601 219.821 94.2169 218.686C93.1596 217.855 92.0674 216.996 91.0769 216.049C89.6915 214.721 86.5666 211.196 87.4827 207.151C88.0903 204.471 90.5361 202.221 93.5713 201.551C96.7402 200.851 99.8483 201.842 101.896 202.796C108.914 206.063 114.175 213.54 115.971 222.798C117.563 231.007 116.521 239.332 115.214 247.85C114.955 249.545 114.629 251.655 113.492 253.314C112.492 254.769 111.093 255.506 109.332 255.506V255.508ZM95.5568 245.371C97.7185 248.678 104.565 254.785 109.265 254.838C109.287 254.838 109.308 254.838 109.329 254.838C110.857 254.838 112.073 254.198 112.939 252.936C113.99 251.405 114.289 249.462 114.552 247.75C115.851 239.293 116.885 231.03 115.313 222.926C113.558 213.878 108.436 206.58 101.612 203.402C99.6569 202.492 96.7007 201.545 93.7126 202.205C90.9265 202.82 88.6843 204.868 88.1328 207.298C87.2912 211.011 90.2338 214.317 91.5372 215.565C92.5034 216.491 93.5835 217.338 94.6271 218.16C96.0946 219.313 97.6137 220.506 98.867 221.947C99.4199 222.582 100.07 223.445 100.196 224.484C100.442 226.496 98.7682 227.94 97.2916 229.216C96.9134 229.543 96.5549 229.853 96.2252 230.169C92.1479 234.088 92.6826 240.976 95.5538 245.371H95.5568Z" fill="#364349"/>
<path d="M106.76 250.226C106.68 250.226 106.599 250.197 106.536 250.139C102.39 246.37 102.451 239.967 102.855 236.484C103.035 234.93 103.315 233.359 103.584 231.841C104.14 228.712 104.714 225.478 104.436 222.294C104.037 217.704 101.19 212.74 96.5214 212.131C96.3376 212.106 96.2085 211.939 96.2328 211.755C96.2571 211.572 96.4242 211.443 96.608 211.467C101.627 212.122 104.681 217.379 105.103 222.234C105.387 225.507 104.805 228.785 104.243 231.957C103.976 233.465 103.698 235.025 103.52 236.56C103.13 239.914 103.061 246.076 106.987 249.642C107.123 249.767 107.134 249.978 107.009 250.115C106.944 250.188 106.853 250.224 106.762 250.224L106.76 250.226Z" fill="#364349"/>
<path d="M108.889 232.662C110.083 229.924 111.872 227.284 111.868 224.297C111.862 219.974 108.208 216.697 105.629 213.227C101.006 207.008 99.5141 198.314 102.713 191.256C105.913 184.199 114.105 179.477 121.675 181.136C124.419 181.738 127.123 183.235 128.419 185.728C129.91 188.595 129.26 192.084 128.295 195.17C127.331 198.255 126.067 201.397 126.445 204.606C127.117 210.3 132.683 214.355 133.848 219.968C135.059 225.798 131.244 231.414 127.282 235.861C125.051 238.366 122.693 240.812 120.865 243.64C118.772 246.882 118.526 249.778 117.794 253.425C117.014 257.309 114.405 257.756 111.859 254.969C109.448 252.33 108.077 248.571 107.482 245.1C106.768 240.933 107.192 236.552 108.887 232.665L108.889 232.662Z" fill="white"/>
<path d="M114.994 257.086C113.923 257.086 112.747 256.433 111.614 255.192C108.681 251.98 107.561 247.525 107.155 245.155C106.412 240.827 106.92 236.342 108.583 232.529C108.881 231.846 109.22 231.161 109.546 230.5C110.525 228.519 111.538 226.471 111.533 224.3C111.529 221.025 109.294 218.3 107.136 215.664C106.537 214.935 105.92 214.181 105.36 213.428C100.43 206.796 99.2711 198.038 102.408 191.12C105.771 183.7 114.265 179.172 121.747 180.811C124.967 181.516 127.507 183.252 128.715 185.575C130.339 188.694 129.514 192.396 128.614 195.27C128.476 195.713 128.33 196.159 128.185 196.605C127.337 199.204 126.462 201.892 126.778 204.567C127.12 207.47 128.75 209.904 130.472 212.48C132.014 214.783 133.608 217.164 134.176 219.899C135.493 226.243 131.016 232.174 127.533 236.083C127.153 236.508 126.77 236.932 126.387 237.356C124.549 239.39 122.65 241.494 121.148 243.82C119.43 246.48 118.977 248.927 118.453 251.762C118.35 252.321 118.243 252.895 118.125 253.487C117.738 255.417 116.866 256.662 115.667 256.995C115.448 257.056 115.225 257.086 114.996 257.086H114.994ZM118.599 181.141C112.267 181.141 105.811 185.233 103.017 191.393C99.979 198.094 101.109 206.586 105.896 213.027C106.446 213.767 107.058 214.514 107.651 215.237C109.885 217.963 112.196 220.782 112.2 224.296C112.203 226.623 111.157 228.744 110.143 230.793C109.82 231.448 109.484 232.127 109.194 232.794C107.582 236.49 107.092 240.839 107.812 245.039C108.207 247.338 109.288 251.654 112.106 254.739C113.305 256.05 114.503 256.623 115.485 256.351C116.427 256.088 117.131 255.025 117.466 253.355C117.584 252.764 117.689 252.195 117.792 251.639C118.33 248.734 118.795 246.227 120.584 243.455C122.116 241.084 124.034 238.96 125.889 236.905C126.272 236.481 126.653 236.058 127.032 235.635C130.418 231.834 134.775 226.081 133.518 220.033C132.976 217.425 131.42 215.099 129.915 212.849C128.223 210.32 126.473 207.705 126.111 204.643C125.778 201.82 126.678 199.062 127.547 196.396C127.691 195.952 127.835 195.508 127.973 195.068C128.835 192.315 129.631 188.783 128.119 185.88C127.003 183.734 124.627 182.123 121.601 181.461C120.613 181.245 119.606 181.141 118.596 181.141H118.599Z" fill="#364349"/>
<path d="M115.087 253.437C114.994 253.437 114.9 253.398 114.834 253.322C111.764 249.788 112.086 244.503 113.413 240.736C114.345 238.082 115.785 235.622 117.179 233.245C117.938 231.948 118.722 230.608 119.413 229.254C121.806 224.569 122.461 220.471 121.359 217.074C120.636 214.844 119.214 213.012 117.707 211.07C116.732 209.814 115.725 208.517 114.936 207.11C111.931 201.752 112.386 194.564 116.041 189.628C116.15 189.479 116.36 189.449 116.509 189.558C116.657 189.667 116.688 189.877 116.578 190.026C113.075 194.758 112.641 201.649 115.52 206.783C116.284 208.146 117.276 209.425 118.236 210.66C119.711 212.561 121.236 214.526 121.996 216.867C123.153 220.44 122.485 224.711 120.009 229.56C119.31 230.93 118.52 232.279 117.756 233.584C116.379 235.935 114.956 238.366 114.043 240.959C112.779 244.549 112.457 249.568 115.339 252.884C115.46 253.024 115.445 253.235 115.305 253.357C115.242 253.411 115.164 253.439 115.087 253.439V253.437Z" fill="#364349"/>
<path d="M140.287 252.196H92.5884L95.8378 288.666H137.038L140.287 252.196Z" fill="#E2EAFF"/>
<path d="M503.69 289H87.7758C87.5905 289 87.4416 288.85 87.4416 288.666C87.4416 288.482 87.5905 288.332 87.7758 288.332H503.355V260.881C503.355 260.697 503.504 260.547 503.69 260.547C503.875 260.547 504.024 260.697 504.024 260.881V288.666C504.024 288.85 503.875 289 503.69 289Z" fill="#364349"/>
<path d="M356.966 269.719H459.125V288.666H356.966C353.082 288.666 349.928 285.512 349.928 281.628V276.757C349.928 272.873 353.082 269.719 356.966 269.719Z" fill="white"/>
<path d="M459.126 289H356.968C352.903 289 349.596 285.693 349.596 281.628V276.757C349.596 272.692 352.903 269.385 356.968 269.385H459.126C459.311 269.385 459.46 269.534 459.46 269.719V288.666C459.46 288.851 459.311 289 459.126 289ZM356.968 270.053C353.272 270.053 350.264 273.06 350.264 276.757V281.628C350.264 285.324 353.27 288.332 356.968 288.332H458.792V270.053H356.968Z" fill="#364349"/>
<path d="M457.453 271.378H394.168C392.24 271.378 390.677 272.911 390.677 274.801V283.583C390.677 285.473 392.24 287.005 394.168 287.005H457.453V271.378Z" fill="#E2EAFF"/>
<path d="M412.777 275.607H396.338C396.152 275.607 396.003 275.458 396.003 275.273C396.003 275.088 396.152 274.939 396.338 274.939H412.777C412.963 274.939 413.112 275.088 413.112 275.273C413.112 275.458 412.963 275.607 412.777 275.607Z" fill="#364349"/>
<path d="M424.604 283.466H401.407C401.222 283.466 401.073 283.317 401.073 283.132C401.073 282.946 401.222 282.797 401.407 282.797H424.604C424.789 282.797 424.938 282.946 424.938 283.132C424.938 283.317 424.789 283.466 424.604 283.466Z" fill="#364349"/>
<path d="M401.531 252.432H503.69V269.718H401.531C397.647 269.718 394.493 266.564 394.493 262.68V259.468C394.493 255.584 397.647 252.43 401.531 252.43V252.432Z" fill="white"/>
<path d="M503.69 270.053H401.531C397.466 270.053 394.159 266.746 394.159 262.681V259.47C394.159 255.404 397.466 252.097 401.531 252.097H503.69C503.875 252.097 504.024 252.246 504.024 252.432V269.718C504.024 269.903 503.875 270.052 503.69 270.052V270.053ZM401.531 252.767C397.835 252.767 394.828 255.774 394.828 259.471V262.683C394.828 266.379 397.835 269.387 401.531 269.387H503.355V252.769H401.531V252.767Z" fill="#364349"/>
<path d="M501.683 254.092H438.398C436.47 254.092 434.907 255.625 434.907 257.515V264.636C434.907 266.526 436.47 268.059 438.398 268.059H501.683V254.092Z" fill="#E2EAFF"/>
</g>
</g>
<defs>
<linearGradient id="paint0_linear_1_220" x1="590" y1="3.50001" x2="-5.58754e-06" y2="300" gradientUnits="userSpaceOnUse">
<stop stop-color="#2359C3" stop-opacity="0.76"/>
<stop offset="0.491625" stop-color="#791C5F" stop-opacity="0.64"/>
<stop offset="1" stop-color="#0AC9BE" stop-opacity="0.7"/>
</linearGradient>
<clipPath id="clip0_1_220">
<rect width="420.696" height="278" fill="white" transform="translate(87.3171 11)"/>
</clipPath>
</defs>
</svg>
