<svg width="24" height="19" viewBox="0 0 24 19" fill="none" xmlns="http://www.w3.org/2000/svg">
<g id="Group 2379">
<path id="Vector" d="M10.6921 0C4.3762 0 0 5.05277 0 7.57928C0 10.1053 1.26313 12.0001 3.78964 12.0001C6.3159 12.0001 7.57904 12.6316 7.57904 14.5264C7.57904 17.0529 9.47386 18.9475 11.9999 18.9475C20.2106 18.9475 24 14.5266 24 10.1053C24 2.52627 18.2711 0 10.6921 0ZM9.00633 2.52627C9.21534 2.52369 9.42278 2.56263 9.61662 2.64083C9.81047 2.71903 9.98686 2.83494 10.1356 2.98183C10.2843 3.12871 10.4023 3.30366 10.4829 3.49653C10.5635 3.68939 10.605 3.89634 10.605 4.10536C10.605 4.31438 10.5635 4.52133 10.4829 4.71419C10.4023 4.90706 10.2843 5.08201 10.1356 5.2289C9.98686 5.37579 9.81047 5.49169 9.61662 5.56989C9.42278 5.64809 9.21534 5.68703 9.00633 5.68446C8.5909 5.67934 8.19422 5.51071 7.90226 5.21513C7.6103 4.91955 7.44658 4.52082 7.44658 4.10536C7.44658 3.6899 7.6103 3.29117 7.90226 2.99559C8.19422 2.70001 8.5909 2.53139 9.00633 2.52627ZM14.0591 2.52627C14.2681 2.52369 14.4755 2.56263 14.6694 2.64083C14.8632 2.71903 15.0396 2.83494 15.1883 2.98183C15.337 3.12871 15.4551 3.30366 15.5357 3.49653C15.6163 3.68939 15.6578 3.89634 15.6578 4.10536C15.6578 4.31438 15.6163 4.52133 15.5357 4.71419C15.4551 4.90706 15.337 5.08201 15.1883 5.2289C15.0396 5.37579 14.8632 5.49169 14.6694 5.56989C14.4755 5.64809 14.2681 5.68703 14.0591 5.68446C13.6437 5.67934 13.247 5.51071 12.955 5.21513C12.6631 4.91955 12.4994 4.52082 12.4994 4.10536C12.4994 3.6899 12.6631 3.29117 12.955 2.99559C13.247 2.70001 13.6437 2.53139 14.0591 2.52627ZM18.6314 5.05277C18.8404 5.05019 19.0478 5.08913 19.2416 5.16732C19.4354 5.24551 19.6118 5.36139 19.7605 5.50826C19.9091 5.65513 20.0272 5.83005 20.1078 6.02289C20.1883 6.21572 20.2298 6.42263 20.2298 6.63163C20.2298 6.84062 20.1883 7.04753 20.1078 7.24037C20.0272 7.4332 19.9091 7.60813 19.7605 7.75499C19.6118 7.90186 19.4354 8.01775 19.2416 8.09593C19.0478 8.17412 18.8404 8.21306 18.6314 8.21048C18.216 8.20536 17.8194 8.03676 17.5275 7.74123C17.2356 7.44569 17.0719 7.04703 17.0719 6.63163C17.0719 6.21623 17.2356 5.81756 17.5275 5.52203C17.8194 5.22649 18.216 5.05789 18.6314 5.05277ZM4.58501 5.35589C4.79468 5.35224 5.00297 5.39038 5.19775 5.46809C5.39252 5.5458 5.56987 5.66152 5.71943 5.8085C5.869 5.95549 5.9878 6.13079 6.06889 6.32418C6.14999 6.51756 6.19175 6.72517 6.19175 6.93487C6.19175 7.14457 6.14999 7.35217 6.06889 7.54556C5.9878 7.73895 5.869 7.91425 5.71943 8.06124C5.56987 8.20822 5.39252 8.32394 5.19775 8.40165C5.00297 8.47936 4.79468 8.5175 4.58501 8.51385C4.171 8.50663 3.7764 8.3371 3.48617 8.04177C3.19595 7.74644 3.03332 7.34894 3.03332 6.93487C3.03332 6.5208 3.19595 6.1233 3.48617 5.82797C3.7764 5.53264 4.171 5.36311 4.58501 5.35589ZM12.9601 12.6316C13.4627 12.6316 13.9446 12.8312 14.3 13.1865C14.6553 13.5419 14.8549 14.0238 14.8549 14.5264C14.8549 15.5728 13.5265 16.4212 12.4801 16.4212C11.9776 16.4212 11.4956 16.2216 11.1403 15.8662C10.7849 15.5109 10.5853 15.0289 10.5853 14.5264C10.5853 13.48 11.9137 12.6316 12.9601 12.6316Z" fill="#7249CB"/>
</g>
</svg>
