<svg xmlns="http://www.w3.org/2000/svg" xmlns:xlink="http://www.w3.org/1999/xlink" width="1125" height="432">
<rect x="0" y="0" width="1125" height="432" style="fill:rgba(64,26,107,1)"/>
<defs>
<symbol id="stamp" viewBox="0 0 100 100">
<path d="M88.8,50c0,21.4-17.4,38.8-38.8,38.8S11.2,71.4,11.2,50S28.6,11.2,50,11.2h0C71.4,11.3,88.7,28.6,88.8,50z M94.3,50  C94.3,25.5,74.5,5.7,50,5.7S5.7,25.5,5.7,50S25.5,94.3,50,94.3c0,0,0,0,0,0C74.5,94.3,94.3,74.5,94.3,50z M61.1,50  c0,6.1-5,11.1-11.1,11.1s-11.1-5-11.1-11.1s5-11.1,11.1-11.1C56.1,38.9,61.1,43.9,61.1,50z M66.6,50c0-9.2-7.4-16.6-16.6-16.6  S33.4,40.8,33.4,50S40.8,66.6,50,66.6C59.2,66.6,66.6,59.2,66.6,50z M58.3,83.2c1.5,0,2.8-1.2,2.8-2.8c0-0.4-0.1-0.8-0.3-1.2  L58,73.7c-0.7-1.4-2.4-1.9-3.7-1.3c-1.4,0.7-1.9,2.4-1.3,3.7l0,0l2.8,5.5C56.2,82.6,57.2,83.2,58.3,83.2L58.3,83.2z M22.3,63.8  c0.4,0,0.8-0.1,1.2-0.3l5-2.3c1.3-0.7,1.9-2.4,1.1-3.7c-0.7-1.3-2.2-1.8-3.5-1.3l-5,2.3c-1.4,0.6-2,2.3-1.3,3.7  C20.2,63.2,21.2,63.9,22.3,63.8L22.3,63.8z M33.4,28.1c0.5,0,0.9-0.1,1.4-0.4l5.4-3.1c1.4-0.7,1.9-2.4,1.2-3.7  c-0.7-1.4-2.4-1.9-3.7-1.2c-0.1,0-0.1,0.1-0.2,0.1L32,23c-1.3,0.8-1.8,2.4-1,3.8C31.4,27.6,32.4,28.2,33.4,28.1L33.4,28.1z   M71.7,37.7c0.2,0,0.5,0,0.7-0.1l6-1.6c1.5-0.4,2.4-1.9,2-3.4c-0.4-1.5-1.9-2.4-3.4-2c0,0,0,0,0,0l-6,1.6c-1.5,0.4-2.4,1.9-2,3.4  C69.3,36.9,70.4,37.7,71.7,37.7z M72.8,57.3c0.6,0,1.2-0.2,1.7-0.6l2.2-1.7c1.2-0.9,1.4-2.7,0.5-3.9c-0.9-1.2-2.7-1.4-3.9-0.5  c0,0-0.1,0.1-0.1,0.1L71,52.4c-1.2,1-1.4,2.7-0.4,3.9C71.1,56.9,71.9,57.3,72.8,57.3L72.8,57.3z M73.5,73.6c1.5,0,2.8-1.2,2.8-2.8  c0-0.5-0.1-0.9-0.3-1.3L74.6,67c-0.8-1.3-2.4-1.8-3.8-1.1c-1.3,0.7-1.8,2.4-1.1,3.7l1.3,2.5C71.5,73,72.4,73.6,73.5,73.6L73.5,73.6z   M25.1,43.2c1.5,0,2.8-1.2,2.8-2.8c0-1.1-0.6-2.1-1.6-2.5l-2.5-1.1c-1.4-0.6-3,0.1-3.6,1.5c-0.6,1.4,0,2.9,1.4,3.5L24,43  C24.3,43.2,24.7,43.2,25.1,43.2L25.1,43.2z M41.8,77.6c1.5,0,2.8-1.2,2.8-2.8c0-0.7-0.2-1.3-0.6-1.8L42.1,71c-1-1.1-2.8-1.2-3.9-0.2  c-1.1,1-1.2,2.6-0.3,3.7l1.8,2.1C40.2,77.3,41,77.7,41.8,77.6L41.8,77.6z M55.5,27.8c1.3,0,2.4-0.9,2.7-2.2l0.6-2.7  c0.3-1.5-0.6-3-2.1-3.3c-1.5-0.3-3,0.6-3.3,2.1l-0.6,2.7c-0.3,1.5,0.6,3,2.2,3.3C55.2,27.8,55.4,27.8,55.5,27.8L55.5,27.8z" style="fill:rgba(255,255,255,1);fill-rule:evenodd;"/>
</symbol>
<symbol id="unstamp" viewBox="0 0 100 100">
<path d="M88.8,50c0,21.4-17.4,38.8-38.8,38.8S11.2,71.4,11.2,50S28.6,11.2,50,11.2h0C71.4,11.3,88.7,28.6,88.8,50z M94.3,50  C94.3,25.5,74.5,5.7,50,5.7S5.7,25.5,5.7,50S25.5,94.3,50,94.3c0,0,0,0,0,0C74.5,94.3,94.3,74.5,94.3,50z M61.1,50  c0,6.1-5,11.1-11.1,11.1s-11.1-5-11.1-11.1s5-11.1,11.1-11.1C56.1,38.9,61.1,43.9,61.1,50z M66.6,50c0-9.2-7.4-16.6-16.6-16.6  S33.4,40.8,33.4,50S40.8,66.6,50,66.6C59.2,66.6,66.6,59.2,66.6,50z M58.3,83.2c1.5,0,2.8-1.2,2.8-2.8c0-0.4-0.1-0.8-0.3-1.2  L58,73.7c-0.7-1.4-2.4-1.9-3.7-1.3c-1.4,0.7-1.9,2.4-1.3,3.7l0,0l2.8,5.5C56.2,82.6,57.2,83.2,58.3,83.2L58.3,83.2z M22.3,63.8  c0.4,0,0.8-0.1,1.2-0.3l5-2.3c1.3-0.7,1.9-2.4,1.1-3.7c-0.7-1.3-2.2-1.8-3.5-1.3l-5,2.3c-1.4,0.6-2,2.3-1.3,3.7  C20.2,63.2,21.2,63.9,22.3,63.8L22.3,63.8z M33.4,28.1c0.5,0,0.9-0.1,1.4-0.4l5.4-3.1c1.4-0.7,1.9-2.4,1.2-3.7  c-0.7-1.4-2.4-1.9-3.7-1.2c-0.1,0-0.1,0.1-0.2,0.1L32,23c-1.3,0.8-1.8,2.4-1,3.8C31.4,27.6,32.4,28.2,33.4,28.1L33.4,28.1z   M71.7,37.7c0.2,0,0.5,0,0.7-0.1l6-1.6c1.5-0.4,2.4-1.9,2-3.4c-0.4-1.5-1.9-2.4-3.4-2c0,0,0,0,0,0l-6,1.6c-1.5,0.4-2.4,1.9-2,3.4  C69.3,36.9,70.4,37.7,71.7,37.7z M72.8,57.3c0.6,0,1.2-0.2,1.7-0.6l2.2-1.7c1.2-0.9,1.4-2.7,0.5-3.9c-0.9-1.2-2.7-1.4-3.9-0.5  c0,0-0.1,0.1-0.1,0.1L71,52.4c-1.2,1-1.4,2.7-0.4,3.9C71.1,56.9,71.9,57.3,72.8,57.3L72.8,57.3z M73.5,73.6c1.5,0,2.8-1.2,2.8-2.8  c0-0.5-0.1-0.9-0.3-1.3L74.6,67c-0.8-1.3-2.4-1.8-3.8-1.1c-1.3,0.7-1.8,2.4-1.1,3.7l1.3,2.5C71.5,73,72.4,73.6,73.5,73.6L73.5,73.6z   M25.1,43.2c1.5,0,2.8-1.2,2.8-2.8c0-1.1-0.6-2.1-1.6-2.5l-2.5-1.1c-1.4-0.6-3,0.1-3.6,1.5c-0.6,1.4,0,2.9,1.4,3.5L24,43  C24.3,43.2,24.7,43.2,25.1,43.2L25.1,43.2z M41.8,77.6c1.5,0,2.8-1.2,2.8-2.8c0-0.7-0.2-1.3-0.6-1.8L42.1,71c-1-1.1-2.8-1.2-3.9-0.2  c-1.1,1-1.2,2.6-0.3,3.7l1.8,2.1C40.2,77.3,41,77.7,41.8,77.6L41.8,77.6z M55.5,27.8c1.3,0,2.4-0.9,2.7-2.2l0.6-2.7  c0.3-1.5-0.6-3-2.1-3.3c-1.5-0.3-3,0.6-3.3,2.1l-0.6,2.7c-0.3,1.5,0.6,3,2.2,3.3C55.2,27.8,55.4,27.8,55.5,27.8L55.5,27.8z" style="fill:rgba(255,255,255,0.25);fill-rule:evenodd;"/>
</symbol>
</defs>
<circle cx="72" cy="90" r="32" style="fill:rgba(107,29,94,1);stroke:rgba(23,123,227,1);stroke-width:3"/>
<use x="51" y="69" xlink:href="#stamp" height="42" width="42"/>
<circle cx="180" cy="90" r="32" style="fill:rgba(107,29,94,1);stroke:rgba(23,123,227,1);stroke-width:3"/>
<use x="159" y="69" xlink:href="#stamp" height="42" width="42"/>
<circle cx="288" cy="90" r="32" style="fill:rgba(107,29,94,1);stroke:rgba(23,123,227,1);stroke-width:3"/>
<use x="267" y="69" xlink:href="#unstamp" height="42" width="42"/>
<circle cx="396" cy="90" r="32" style="fill:rgba(107,29,94,1);stroke:rgba(23,123,227,1);stroke-width:3"/>
<use x="375" y="69" xlink:href="#unstamp" height="42" width="42"/>
<circle cx="504" cy="90" r="32" style="fill:rgba(107,29,94,1);stroke:rgba(23,123,227,1);stroke-width:3"/>
<use x="483" y="69" xlink:href="#unstamp" height="42" width="42"/>
<circle cx="612" cy="90" r="32" style="fill:rgba(107,29,94,1);stroke:rgba(23,123,227,1);stroke-width:3"/>
<use x="591" y="69" xlink:href="#unstamp" height="42" width="42"/>
<circle cx="720" cy="90" r="32" style="fill:rgba(107,29,94,1);stroke:rgba(23,123,227,1);stroke-width:3"/>
<use x="699" y="69" xlink:href="#unstamp" height="42" width="42"/>
<circle cx="828" cy="90" r="32" style="fill:rgba(107,29,94,1);stroke:rgba(23,123,227,1);stroke-width:3"/>
<use x="807" y="69" xlink:href="#unstamp" height="42" width="42"/>
<circle cx="936" cy="90" r="32" style="fill:rgba(107,29,94,1);stroke:rgba(23,123,227,1);stroke-width:3"/>
<use x="915" y="69" xlink:href="#unstamp" height="42" width="42"/>
<circle cx="1044" cy="90" r="32" style="fill:rgba(107,29,94,1);stroke:rgba(23,123,227,1);stroke-width:3"/>
<use x="1023" y="69" xlink:href="#unstamp" height="42" width="42"/>
<circle cx="72" cy="216" r="32" style="fill:rgba(107,29,94,1);stroke:rgba(23,123,227,1);stroke-width:3"/>
<use x="51" y="195" xlink:href="#unstamp" height="42" width="42"/>
<circle cx="180" cy="216" r="32" style="fill:rgba(107,29,94,1);stroke:rgba(23,123,227,1);stroke-width:3"/>
<use x="159" y="195" xlink:href="#unstamp" height="42" width="42"/>
<circle cx="288" cy="216" r="32" style="fill:rgba(107,29,94,1);stroke:rgba(23,123,227,1);stroke-width:3"/>
<use x="267" y="195" xlink:href="#unstamp" height="42" width="42"/>
<circle cx="396" cy="216" r="32" style="fill:rgba(107,29,94,1);stroke:rgba(23,123,227,1);stroke-width:3"/>
<use x="375" y="195" xlink:href="#unstamp" height="42" width="42"/>
<circle cx="504" cy="216" r="32" style="fill:rgba(107,29,94,1);stroke:rgba(23,123,227,1);stroke-width:3"/>
<use x="483" y="195" xlink:href="#unstamp" height="42" width="42"/>
<circle cx="612" cy="216" r="32" style="fill:rgba(107,29,94,1);stroke:rgba(23,123,227,1);stroke-width:3"/>
<use x="591" y="195" xlink:href="#unstamp" height="42" width="42"/>
<circle cx="720" cy="216" r="32" style="fill:rgba(107,29,94,1);stroke:rgba(23,123,227,1);stroke-width:3"/>
<use x="699" y="195" xlink:href="#unstamp" height="42" width="42"/>
<circle cx="828" cy="216" r="32" style="fill:rgba(107,29,94,1);stroke:rgba(23,123,227,1);stroke-width:3"/>
<use x="807" y="195" xlink:href="#unstamp" height="42" width="42"/>
<circle cx="936" cy="216" r="32" style="fill:rgba(107,29,94,1);stroke:rgba(23,123,227,1);stroke-width:3"/>
<use x="915" y="195" xlink:href="#unstamp" height="42" width="42"/>
<circle cx="1044" cy="216" r="32" style="fill:rgba(107,29,94,1);stroke:rgba(23,123,227,1);stroke-width:3"/>
<use x="1023" y="195" xlink:href="#unstamp" height="42" width="42"/>
<circle cx="72" cy="341" r="32" style="fill:rgba(107,29,94,1);stroke:rgba(23,123,227,1);stroke-width:3"/>
<use x="51" y="320" xlink:href="#unstamp" height="42" width="42"/>
<circle cx="180" cy="341" r="32" style="fill:rgba(107,29,94,1);stroke:rgba(23,123,227,1);stroke-width:3"/>
<use x="159" y="320" xlink:href="#unstamp" height="42" width="42"/>
<circle cx="288" cy="341" r="32" style="fill:rgba(107,29,94,1);stroke:rgba(23,123,227,1);stroke-width:3"/>
<use x="267" y="320" xlink:href="#unstamp" height="42" width="42"/>
<circle cx="396" cy="341" r="32" style="fill:rgba(107,29,94,1);stroke:rgba(23,123,227,1);stroke-width:3"/>
<use x="375" y="320" xlink:href="#unstamp" height="42" width="42"/>
<circle cx="504" cy="341" r="32" style="fill:rgba(107,29,94,1);stroke:rgba(23,123,227,1);stroke-width:3"/>
<use x="483" y="320" xlink:href="#unstamp" height="42" width="42"/>
<circle cx="612" cy="341" r="32" style="fill:rgba(107,29,94,1);stroke:rgba(23,123,227,1);stroke-width:3"/>
<use x="591" y="320" xlink:href="#unstamp" height="42" width="42"/>
<circle cx="720" cy="341" r="32" style="fill:rgba(107,29,94,1);stroke:rgba(23,123,227,1);stroke-width:3"/>
<use x="699" y="320" xlink:href="#unstamp" height="42" width="42"/>
<circle cx="828" cy="341" r="32" style="fill:rgba(107,29,94,1);stroke:rgba(23,123,227,1);stroke-width:3"/>
<use x="807" y="320" xlink:href="#unstamp" height="42" width="42"/>
<circle cx="936" cy="341" r="32" style="fill:rgba(107,29,94,1);stroke:rgba(23,123,227,1);stroke-width:3"/>
<use x="915" y="320" xlink:href="#unstamp" height="42" width="42"/>
<circle cx="1044" cy="341" r="32" style="fill:rgba(107,29,94,1);stroke:rgba(23,123,227,1);stroke-width:3"/>
<use x="1023" y="320" xlink:href="#unstamp" height="42" width="42"/>
</svg>