<svg width="20" height="20" viewBox="0 0 20 20" fill="none" xmlns="http://www.w3.org/2000/svg">
<path d="M15 1.33989C16.5083 2.21075 17.7629 3.46042 18.6398 4.96519C19.5167 6.46997 19.9854 8.17766 19.9994 9.91923C20.0135 11.6608 19.5725 13.3758 18.72 14.8946C17.8676 16.4133 16.6332 17.6831 15.1392 18.5782C13.6452 19.4733 11.9434 19.9627 10.2021 19.998C8.46083 20.0332 6.74055 19.6131 5.21155 18.7791C3.68256 17.9452 2.39787 16.7264 1.48467 15.2434C0.571462 13.7604 0.0614093 12.0646 0.00500011 10.3239L0 9.99989L0.00500011 9.67589C0.0610032 7.94888 0.563548 6.26585 1.46364 4.79088C2.36373 3.31592 3.63065 2.09934 5.14089 1.25977C6.65113 0.420205 8.35314 -0.0137108 10.081 0.000330246C11.8089 0.0143713 13.5036 0.47589 15 1.33989ZM13.2 12.2859C13.0106 12.1003 12.7553 11.9975 12.4901 12.0001C12.2249 12.0027 11.9717 12.1106 11.786 12.2999C11.5532 12.5375 11.2753 12.7264 10.9687 12.8553C10.662 12.9842 10.3327 13.0505 10 13.0505C9.66733 13.0505 9.33801 12.9842 9.03133 12.8553C8.72465 12.7264 8.44678 12.5375 8.214 12.2999C8.0274 12.1149 7.7755 12.0108 7.51276 12.0101C7.25002 12.0094 6.99754 12.1121 6.80993 12.296C6.62231 12.48 6.51462 12.7303 6.51014 12.993C6.50567 13.2558 6.60476 13.5097 6.786 13.6999C7.20498 14.1274 7.70504 14.4671 8.25692 14.6989C8.8088 14.9308 9.40139 15.0503 10 15.0503C10.5986 15.0503 11.1912 14.9308 11.7431 14.6989C12.295 14.4671 12.795 14.1274 13.214 13.6999C13.3996 13.5105 13.5024 13.2552 13.4998 12.99C13.4972 12.7248 13.3893 12.4716 13.2 12.2859ZM7.01 6.99989L6.883 7.00689C6.6299 7.03699 6.39785 7.16261 6.23426 7.35806C6.07067 7.55351 5.98789 7.80405 6.00283 8.0585C6.01776 8.31294 6.12929 8.55207 6.31463 8.72704C6.49997 8.90201 6.74512 8.99961 7 8.99989L7.127 8.99289C7.38009 8.96279 7.61214 8.83718 7.77573 8.64172C7.93932 8.44627 8.02211 8.19573 8.00717 7.94129C7.99223 7.68684 7.8807 7.44771 7.69537 7.27274C7.51003 7.09777 7.26488 7.00017 7.01 6.99989ZM13.01 6.99989L12.883 7.00689C12.6299 7.03699 12.3979 7.16261 12.2343 7.35806C12.0707 7.55351 11.9879 7.80405 12.0028 8.0585C12.0178 8.31294 12.1293 8.55207 12.3146 8.72704C12.5 8.90201 12.7451 8.99961 13 8.99989L13.127 8.99289C13.3801 8.96279 13.6121 8.83718 13.7757 8.64172C13.9393 8.44627 14.0221 8.19573 14.0072 7.94129C13.9922 7.68684 13.8807 7.44771 13.6954 7.27274C13.51 7.09777 13.2649 7.00017 13.01 6.99989Z" fill="#00CAD1"/>
</svg>
