<svg width="22" height="24" viewBox="0 0 22 24" fill="none" xmlns="http://www.w3.org/2000/svg">
<g id="Trash">
<path id="Vector" d="M17.223 7.2C17.4213 7.20023 17.6119 7.2783 17.7561 7.41828C17.9003 7.55825 17.987 7.74956 17.9987 7.95312C18.0103 8.15667 17.9459 8.3571 17.8186 8.51347C17.6914 8.66983 17.5109 8.77032 17.314 8.7944L17.223 8.8H17.16L16.4451 17.6C16.4451 18.2122 16.2177 18.8012 15.8094 19.2466C15.401 19.692 14.8426 19.9601 14.2484 19.996L14.1115 20H7.88851C6.64546 20 5.62956 19.0008 5.56111 17.8L5.55722 17.6664L4.83924 8.8H4.77701C4.57875 8.79977 4.38805 8.7217 4.24388 8.58172C4.09971 8.44175 4.01296 8.25044 4.00134 8.04688C3.98972 7.84333 4.05411 7.6429 4.18137 7.48653C4.30862 7.33017 4.48912 7.22968 4.686 7.2056L4.77701 7.2H17.223ZM12.5557 4C12.9684 4 13.3641 4.16857 13.6558 4.46863C13.9476 4.76869 14.1115 5.17565 14.1115 5.6C14.1113 5.8039 14.0354 6.00003 13.8993 6.14829C13.7631 6.29656 13.5771 6.38579 13.3792 6.39774C13.1813 6.40969 12.9864 6.34346 12.8344 6.21259C12.6823 6.08172 12.5846 5.89608 12.5612 5.6936L12.5557 5.6H9.44425L9.43881 5.6936C9.41539 5.89608 9.31768 6.08172 9.16564 6.21259C9.01361 6.34346 8.81872 6.40969 8.62079 6.39774C8.42287 6.38579 8.23685 6.29656 8.10075 6.14829C7.96464 6.00003 7.88873 5.8039 7.88851 5.6C7.88838 5.19634 8.03662 4.80755 8.3035 4.51156C8.57038 4.21558 8.93618 4.03427 9.32757 4.004L9.44425 4H12.5557Z" fill="#677781"/>
</g>
</svg>
