<svg width="20" height="24" viewBox="0 0 20 24" fill="none" xmlns="http://www.w3.org/2000/svg">
<path id="Vector" d="M18.492 6.492L12.696 0.696C12.252 0.252 11.64 0 11.004 0H2.4C1.08 0 0.0120003 1.08 0.0120003 2.4L0 21.6C0 22.92 1.068 24 2.388 24H16.8C18.12 24 19.2 22.92 19.2 21.6V8.196C19.2 7.56 18.948 6.948 18.492 6.492ZM12.96 15.6H10.8V19.2C10.8 19.86 10.26 20.4 9.6 20.4C8.94 20.4 8.4 19.86 8.4 19.2V15.6H6.252C5.712 15.6 5.448 14.952 5.832 14.58L9.192 11.232C9.432 11.004 9.804 11.004 10.044 11.232L13.392 14.58C13.752 14.952 13.488 15.6 12.96 15.6ZM12 8.4C11.34 8.4 10.8 7.86 10.8 7.2V1.8L17.4 8.4H12Z" fill="#677781"/>
</svg>
