<svg width="16" height="16" viewBox="0 0 16 16" fill="none" xmlns="http://www.w3.org/2000/svg">
<g id="Group 2317">
<path id="Vector" d="M15.9179 15.0798C15.8639 15.1734 15.7862 15.2511 15.6926 15.3051C15.599 15.3592 15.4929 15.3876 15.3848 15.3876H0.614787C0.506812 15.3874 0.400767 15.3589 0.307299 15.3049C0.213832 15.2508 0.136232 15.1731 0.0822927 15.0796C0.0283531 14.986 -2.77002e-05 14.88 2.02871e-08 14.772C2.77407e-05 14.664 0.028463 14.5579 0.0824506 14.4644C1.25405 12.4389 3.05954 10.9865 5.16657 10.298C4.12434 9.67759 3.31459 8.73217 2.86167 7.60697C2.40875 6.48177 2.33772 5.239 2.65947 4.06951C2.98122 2.90003 3.67797 1.8685 4.64272 1.13333C5.60747 0.398158 6.78687 0 7.99981 0C9.21274 0 10.3921 0.398158 11.3569 1.13333C12.3216 1.8685 13.0184 2.90003 13.3401 4.06951C13.6619 5.239 13.5909 6.48177 13.1379 7.60697C12.685 8.73217 11.8753 9.67759 10.833 10.298C12.9401 10.9865 14.7456 12.4389 15.9172 14.4644C15.9713 14.5579 15.9999 14.664 16 14.772C16.0001 14.8801 15.9718 14.9862 15.9179 15.0798Z" fill="#7249CB"/>
</g>
</svg>
