<svg width="20" height="20" viewBox="0 0 20 20" fill="none" xmlns="http://www.w3.org/2000/svg">
<path d="M17.5 4.671H1.875V4.046L15.625 2.946V4.046H17.5V2.171C17.5 0.796003 16.3862 -0.168997 15.0262 0.0247534L2.475 1.81725C1.11375 2.01225 0 3.296 0 4.671V17.171C0 17.834 0.263392 18.4699 0.732233 18.9388C1.20107 19.4076 1.83696 19.671 2.5 19.671H17.5C18.163 19.671 18.7989 19.4076 19.2678 18.9388C19.7366 18.4699 20 17.834 20 17.171V7.171C20 6.50796 19.7366 5.87208 19.2678 5.40324C18.7989 4.93439 18.163 4.671 17.5 4.671ZM15.625 13.4285C15.3787 13.4284 15.1348 13.3798 14.9073 13.2855C14.6797 13.1912 14.473 13.0529 14.2989 12.8787C14.1248 12.7045 13.9867 12.4977 13.8925 12.2701C13.7984 12.0425 13.7499 11.7986 13.75 11.5523C13.7501 11.3059 13.7987 11.0621 13.893 10.8345C13.9873 10.607 14.1256 10.4003 14.2998 10.2262C14.474 10.0521 14.6808 9.91397 14.9084 9.81979C15.136 9.7256 15.3799 9.67717 15.6263 9.67725C16.1237 9.67742 16.6007 9.87519 16.9523 10.2271C17.304 10.5789 17.5014 11.0561 17.5012 11.5535C17.5011 12.0509 17.3033 12.528 16.9515 12.8796C16.5996 13.2312 16.1224 13.4287 15.625 13.4285Z" fill="#FFA900"/>
</svg>
